<?xml version="1.0" encoding="iso-8859-1"?>
<!DOCTYPE svg PUBLIC "-//W3C//DTD SVG 1.0//EN" "http://www.w3.org/TR/2001/REC-SVG-20010904/DTD/svg10.dtd">
<svg width="1000" height="600" xmlns="http://www.w3.org/2000/svg" xmlns:xlink="http://www.w3.org/1999/xlink">
<g style="stroke:black;fill:lightgreen" transform="translate(30,30)">
<line x1="834" y1="276" x2="834" y2="285" style="stroke:blue; stroke-width:1"/>
<line x1="834" y1="285" x2="834" y2="285" style="stroke:blue; stroke-width:1"/>
<line x1="834" y1="276" x2="834" y2="267" style="stroke:blue; stroke-width:1"/>
<line x1="834" y1="267" x2="834" y2="267" style="stroke:blue; stroke-width:1"/>
<line x1="834" y1="289" x2="834" y2="303" style="stroke:blue; stroke-width:1"/>
<line x1="834" y1="303" x2="834" y2="303" style="stroke:blue; stroke-width:1"/>
<line x1="834" y1="330" x2="834" y2="339" style="stroke:blue; stroke-width:1"/>
<line x1="834" y1="339" x2="834" y2="339" style="stroke:blue; stroke-width:1"/>
<line x1="834" y1="330" x2="834" y2="321" style="stroke:blue; stroke-width:1"/>
<line x1="834" y1="321" x2="834" y2="321" style="stroke:blue; stroke-width:1"/>
<line x1="834" y1="333" x2="834" y2="357" style="stroke:blue; stroke-width:1"/>
<line x1="834" y1="357" x2="834" y2="357" style="stroke:blue; stroke-width:1"/>
<line x1="425" y1="354" x2="425" y2="375" style="stroke:blue; stroke-width:1"/>
<line x1="425" y1="375" x2="834" y2="375" style="stroke:blue; stroke-width:1"/>
<line x1="17" y1="402" x2="17" y2="411" style="stroke:blue; stroke-width:1"/>
<line x1="17" y1="411" x2="17" y2="411" style="stroke:blue; stroke-width:1"/>
<line x1="17" y1="402" x2="17" y2="393" style="stroke:blue; stroke-width:1"/>
<line x1="17" y1="393" x2="17" y2="393" style="stroke:blue; stroke-width:1"/>
<line x1="16" y1="491" x2="16" y2="500" style="stroke:blue; stroke-width:1"/>
<line x1="16" y1="500" x2="16" y2="500" style="stroke:blue; stroke-width:1"/>
<line x1="16" y1="491" x2="16" y2="482" style="stroke:blue; stroke-width:1"/>
<line x1="16" y1="482" x2="16" y2="482" style="stroke:blue; stroke-width:1"/>
<line x1="16" y1="437" x2="16" y2="446" style="stroke:blue; stroke-width:1"/>
<line x1="16" y1="446" x2="16" y2="446" style="stroke:blue; stroke-width:1"/>
<line x1="16" y1="437" x2="16" y2="428" style="stroke:blue; stroke-width:1"/>
<line x1="16" y1="428" x2="16" y2="428" style="stroke:blue; stroke-width:1"/>
<line x1="16" y1="451" x2="16" y2="464" style="stroke:blue; stroke-width:1"/>
<line x1="16" y1="464" x2="16" y2="464" style="stroke:blue; stroke-width:1"/>
<line x1="16" y1="495" x2="16" y2="518" style="stroke:blue; stroke-width:1"/>
<line x1="16" y1="518" x2="16" y2="518" style="stroke:blue; stroke-width:1"/>
<line x1="16" y1="486" x2="16" y2="536" style="stroke:blue; stroke-width:1"/>
<line x1="16" y1="536" x2="16" y2="536" style="stroke:blue; stroke-width:1"/>
<line x1="16" y1="486" x2="16" y2="554" style="stroke:blue; stroke-width:1"/>
<line x1="16" y1="554" x2="16" y2="554" style="stroke:blue; stroke-width:1"/>
<line x1="16" y1="229" x2="16" y2="249" style="stroke:blue; stroke-width:1"/>
<line x1="16" y1="249" x2="16" y2="249" style="stroke:blue; stroke-width:1"/>
<line x1="16" y1="209" x2="16" y2="231" style="stroke:blue; stroke-width:1"/>
<line x1="16" y1="231" x2="16" y2="231" style="stroke:blue; stroke-width:1"/>
<line x1="16" y1="186" x2="16" y2="213" style="stroke:blue; stroke-width:1"/>
<line x1="16" y1="213" x2="16" y2="213" style="stroke:blue; stroke-width:1"/>
<line x1="16" y1="159" x2="16" y2="195" style="stroke:blue; stroke-width:1"/>
<line x1="16" y1="195" x2="16" y2="195" style="stroke:blue; stroke-width:1"/>
<line x1="16" y1="133" x2="16" y2="142" style="stroke:blue; stroke-width:1"/>
<line x1="16" y1="142" x2="16" y2="142" style="stroke:blue; stroke-width:1"/>
<line x1="16" y1="133" x2="16" y2="124" style="stroke:blue; stroke-width:1"/>
<line x1="16" y1="124" x2="16" y2="124" style="stroke:blue; stroke-width:1"/>
<line x1="16" y1="146" x2="16" y2="159" style="stroke:blue; stroke-width:1"/>
<line x1="16" y1="159" x2="16" y2="159" style="stroke:blue; stroke-width:1"/>
<line x1="16" y1="162" x2="16" y2="177" style="stroke:blue; stroke-width:1"/>
<line x1="16" y1="177" x2="16" y2="177" style="stroke:blue; stroke-width:1"/>
<line x1="16" y1="82" x2="16" y2="106" style="stroke:blue; stroke-width:1"/>
<line x1="16" y1="106" x2="16" y2="106" style="stroke:blue; stroke-width:1"/>
<line x1="16" y1="79" x2="16" y2="88" style="stroke:blue; stroke-width:1"/>
<line x1="16" y1="88" x2="16" y2="88" style="stroke:blue; stroke-width:1"/>
<line x1="16" y1="79" x2="16" y2="70" style="stroke:blue; stroke-width:1"/>
<line x1="16" y1="70" x2="16" y2="70" style="stroke:blue; stroke-width:1"/>
<line x1="16" y1="25" x2="16" y2="34" style="stroke:blue; stroke-width:1"/>
<line x1="16" y1="34" x2="16" y2="34" style="stroke:blue; stroke-width:1"/>
<line x1="16" y1="25" x2="16" y2="16" style="stroke:blue; stroke-width:1"/>
<line x1="16" y1="16" x2="16" y2="16" style="stroke:blue; stroke-width:1"/>
<line x1="16" y1="38" x2="16" y2="52" style="stroke:blue; stroke-width:1"/>
<line x1="16" y1="52" x2="16" y2="52" style="stroke:blue; stroke-width:1"/>
<line x1="834" y1="289" x2="834" y2="276" style="stroke:blue; stroke-width:1"/>
<line x1="834" y1="276" x2="834" y2="276" style="stroke:blue; stroke-width:1"/>
<line x1="834" y1="310" x2="834" y2="289" style="stroke:blue; stroke-width:1"/>
<line x1="834" y1="289" x2="834" y2="289" style="stroke:blue; stroke-width:1"/>
<line x1="834" y1="310" x2="834" y2="330" style="stroke:blue; stroke-width:1"/>
<line x1="834" y1="330" x2="834" y2="330" style="stroke:blue; stroke-width:1"/>
<line x1="834" y1="333" x2="834" y2="310" style="stroke:blue; stroke-width:1"/>
<line x1="834" y1="310" x2="834" y2="310" style="stroke:blue; stroke-width:1"/>
<line x1="425" y1="354" x2="425" y2="333" style="stroke:blue; stroke-width:1"/>
<line x1="425" y1="333" x2="834" y2="333" style="stroke:blue; stroke-width:1"/>
<line x1="17" y1="378" x2="17" y2="354" style="stroke:blue; stroke-width:1"/>
<line x1="17" y1="354" x2="425" y2="354" style="stroke:blue; stroke-width:1"/>
<line x1="17" y1="378" x2="17" y2="402" style="stroke:blue; stroke-width:1"/>
<line x1="17" y1="402" x2="17" y2="402" style="stroke:blue; stroke-width:1"/>
<line x1="16" y1="436" x2="16" y2="378" style="stroke:blue; stroke-width:1"/>
<line x1="16" y1="378" x2="17" y2="378" style="stroke:blue; stroke-width:1"/>
<line x1="16" y1="471" x2="16" y2="491" style="stroke:blue; stroke-width:1"/>
<line x1="16" y1="491" x2="16" y2="491" style="stroke:blue; stroke-width:1"/>
<line x1="16" y1="451" x2="16" y2="437" style="stroke:blue; stroke-width:1"/>
<line x1="16" y1="437" x2="16" y2="437" style="stroke:blue; stroke-width:1"/>
<line x1="16" y1="471" x2="16" y2="451" style="stroke:blue; stroke-width:1"/>
<line x1="16" y1="451" x2="16" y2="451" style="stroke:blue; stroke-width:1"/>
<line x1="16" y1="495" x2="16" y2="471" style="stroke:blue; stroke-width:1"/>
<line x1="16" y1="471" x2="16" y2="471" style="stroke:blue; stroke-width:1"/>
<line x1="16" y1="436" x2="16" y2="495" style="stroke:blue; stroke-width:1"/>
<line x1="16" y1="495" x2="16" y2="495" style="stroke:blue; stroke-width:1"/>
<line x1="16" y1="486" x2="16" y2="436" style="stroke:blue; stroke-width:1"/>
<line x1="16" y1="436" x2="16" y2="436" style="stroke:blue; stroke-width:1"/>
<line x1="16" y1="486" x2="16" y2="486" style="stroke:blue; stroke-width:1"/>
<line x1="16" y1="486" x2="16" y2="486" style="stroke:blue; stroke-width:1"/>
<line x1="16" y1="486" x2="16" y2="229" style="stroke:blue; stroke-width:1"/>
<line x1="16" y1="229" x2="16" y2="229" style="stroke:blue; stroke-width:1"/>
<line x1="16" y1="229" x2="16" y2="209" style="stroke:blue; stroke-width:1"/>
<line x1="16" y1="209" x2="16" y2="209" style="stroke:blue; stroke-width:1"/>
<line x1="16" y1="209" x2="16" y2="186" style="stroke:blue; stroke-width:1"/>
<line x1="16" y1="186" x2="16" y2="186" style="stroke:blue; stroke-width:1"/>
<line x1="16" y1="186" x2="16" y2="159" style="stroke:blue; stroke-width:1"/>
<line x1="16" y1="159" x2="16" y2="159" style="stroke:blue; stroke-width:1"/>
<line x1="16" y1="146" x2="16" y2="133" style="stroke:blue; stroke-width:1"/>
<line x1="16" y1="133" x2="16" y2="133" style="stroke:blue; stroke-width:1"/>
<line x1="16" y1="162" x2="16" y2="146" style="stroke:blue; stroke-width:1"/>
<line x1="16" y1="146" x2="16" y2="146" style="stroke:blue; stroke-width:1"/>
<line x1="16" y1="122" x2="16" y2="162" style="stroke:blue; stroke-width:1"/>
<line x1="16" y1="162" x2="16" y2="162" style="stroke:blue; stroke-width:1"/>
<line x1="16" y1="159" x2="16" y2="122" style="stroke:blue; stroke-width:1"/>
<line x1="16" y1="122" x2="16" y2="122" style="stroke:blue; stroke-width:1"/>
<line x1="16" y1="122" x2="16" y2="82" style="stroke:blue; stroke-width:1"/>
<line x1="16" y1="82" x2="16" y2="82" style="stroke:blue; stroke-width:1"/>
<line x1="16" y1="59" x2="16" y2="79" style="stroke:blue; stroke-width:1"/>
<line x1="16" y1="79" x2="16" y2="79" style="stroke:blue; stroke-width:1"/>
<line x1="16" y1="82" x2="16" y2="59" style="stroke:blue; stroke-width:1"/>
<line x1="16" y1="59" x2="16" y2="59" style="stroke:blue; stroke-width:1"/>
<line x1="16" y1="38" x2="16" y2="25" style="stroke:blue; stroke-width:1"/>
<line x1="16" y1="25" x2="16" y2="25" style="stroke:blue; stroke-width:1"/>
<line x1="16" y1="59" x2="16" y2="38" style="stroke:blue; stroke-width:1"/>
<line x1="16" y1="38" x2="16" y2="38" style="stroke:blue; stroke-width:1"/>
<text x="20" y="559" font-weight = "10" font-family="verdana" fill="black" font-size="16">MT292574.1</text>
<text x="20" y="541" font-weight = "10" font-family="verdana" fill="black" font-size="16">MT292573.1</text>
<text x="20" y="523" font-weight = "10" font-family="verdana" fill="black" font-size="16">MT292572.1</text>
<text x="20" y="505" font-weight = "10" font-family="verdana" fill="black" font-size="16">MT292569.1</text>
<text x="20" y="487" font-weight = "10" font-family="verdana" fill="black" font-size="16">MT292575.1</text>
<text x="20" y="469" font-weight = "10" font-family="verdana" fill="black" font-size="16">MT292570.1</text>
<text x="20" y="451" font-weight = "10" font-family="verdana" fill="black" font-size="16">MT292580.1</text>
<text x="20" y="433" font-weight = "10" font-family="verdana" fill="black" font-size="16">MT233522.1</text>
<text x="21" y="416" font-weight = "10" font-family="verdana" fill="black" font-size="16">MT198651.1</text>
<text x="21" y="398" font-weight = "10" font-family="verdana" fill="black" font-size="16">MT198653.1</text>
<text x="838" y="380" font-weight = "10" font-family="verdana" fill="black" font-size="16">MT077125.1</text>
<text x="838" y="362" font-weight = "10" font-family="verdana" fill="black" font-size="16">MT328034.1</text>
<text x="838" y="344" font-weight = "10" font-family="verdana" fill="black" font-size="16">MT066156.1</text>
<text x="838" y="326" font-weight = "10" font-family="verdana" fill="black" font-size="16">MT093571.1</text>
<text x="838" y="308" font-weight = "10" font-family="verdana" fill="black" font-size="16">MT328032.1</text>
<text x="838" y="290" font-weight = "10" font-family="verdana" fill="black" font-size="16">MT328033.1</text>
<text x="838" y="272" font-weight = "10" font-family="verdana" fill="black" font-size="16">MT328035.1</text>
<text x="20" y="254" font-weight = "10" font-family="verdana" fill="black" font-size="16">MT292578.1</text>
<text x="20" y="236" font-weight = "10" font-family="verdana" fill="black" font-size="16">MT292571.1</text>
<text x="20" y="218" font-weight = "10" font-family="verdana" fill="black" font-size="16">MT233523.1</text>
<text x="20" y="200" font-weight = "10" font-family="verdana" fill="black" font-size="16">MT233519.1</text>
<text x="20" y="182" font-weight = "10" font-family="verdana" fill="black" font-size="16">MT198652.2</text>
<text x="20" y="164" font-weight = "10" font-family="verdana" fill="black" font-size="16">MT292577.1</text>
<text x="20" y="147" font-weight = "10" font-family="verdana" fill="black" font-size="16">MT256917.1</text>
<text x="20" y="129" font-weight = "10" font-family="verdana" fill="black" font-size="16">MT256918.1</text>
<text x="20" y="111" font-weight = "10" font-family="verdana" fill="black" font-size="16">MT292576.1</text>
<text x="20" y="93" font-weight = "10" font-family="verdana" fill="black" font-size="16">MT292579.1</text>
<text x="20" y="75" font-weight = "10" font-family="verdana" fill="black" font-size="16">MT292581.1</text>
<text x="20" y="57" font-weight = "10" font-family="verdana" fill="black" font-size="16">MT233520.1</text>
<text x="20" y="39" font-weight = "10" font-family="verdana" fill="black" font-size="16">MT292582.1</text>
<text x="20" y="21" font-weight = "10" font-family="verdana" fill="black" font-size="16">MT233521.1</text>
</g></svg>