<?xml version="1.0" encoding="utf-8"?>
<!DOCTYPE svg
  PUBLIC '-//W3C//DTD SVG 1.0//EN'
  'http://www.w3.org/TR/2001/REC-SVG-20010904/DTD/svg10.dtd'>
<svg fill-rule="evenodd" height="595.2755905511812" preserveAspectRatio="xMinYMin meet" version="1.0" viewBox="0 0 841 595" width="841.8897637795277" xmlns="http://www.w3.org/2000/svg" xmlns:xlink="http://www.w3.org/1999/xlink">
	<title>...</title>
	<desc>...</desc>
	<clipPath id="clip">
		<rect height="595.2755905511812" width="841.8897637795277" x="0" y="0"/>
	</clipPath>
	<g id="group" style="clip-path: url(#clip)" transform="scale(1,-1) translate(0,-595)">
		<g transform="">
			<polygon points="68.95253 530.1859, 777.1934 530.1859, 777.1934 543.747, 799.7953 521.1452, 777.1934 498.5433, 777.1934 512.1044, 68.95253 512.1044" style="stroke: rgb(0%,0%,100%); stroke-linecap: round; stroke-width: 1; fill: rgb(0%,0%,100%);"/>
			<polygon points="42.09449 396.2489, 777.1934 396.2489, 777.1934 409.81, 799.7953 387.2082, 777.1934 364.6063, 777.1934 378.1674, 42.09449 378.1674" style="stroke: rgb(0%,0%,100%); stroke-linecap: round; stroke-width: 1; fill: rgb(0%,0%,100%);"/>
			<polygon points="42.09449 262.3119, 688.7139 262.3119, 688.7139 275.873, 711.3158 253.2712, 688.7139 230.6693, 688.7139 244.2304, 42.09449 244.2304" style="stroke: rgb(0%,0%,100%); stroke-linecap: round; stroke-width: 1; fill: rgb(0%,0%,100%);"/>
			<polygon points="712.0252 262.3119, 777.1934 262.3119, 777.1934 275.873, 799.7953 253.2712, 777.1934 230.6693, 777.1934 244.2304, 712.0252 244.2304" style="stroke: rgb(67%,84%,90%); stroke-linecap: round; stroke-width: 1; fill: rgb(67%,84%,90%);"/>
			<polygon points="42.09449 128.3749, 319.0865 128.3749, 319.0865 141.936, 341.6883 119.3342, 319.0865 96.73228, 319.0865 110.2934, 42.09449 110.2934" style="stroke: rgb(67%,84%,90%); stroke-linecap: round; stroke-width: 1; fill: rgb(67%,84%,90%);"/>
			<polygon points="342.4991 128.3749, 403.816 128.3749, 403.816 141.936, 426.4178 119.3342, 403.816 96.73228, 403.816 110.2934, 342.4991 110.2934" style="stroke: rgb(0%,0%,100%); stroke-linecap: round; stroke-width: 1; fill: rgb(0%,0%,100%);"/>
			<polygon points="428.8503 128.3749, 429.3564 128.3749, 429.3564 141.936, 451.9583 119.3342, 429.3564 96.73228, 429.3564 110.2934, 428.8503 110.2934" style="stroke: rgb(67%,84%,90%); stroke-linecap: round; stroke-width: 1; fill: rgb(67%,84%,90%);"/>
			<polygon points="457.0259 128.3749, 502.2279 128.3749, 502.2279 141.936, 524.8298 119.3342, 502.2279 96.73228, 502.2279 110.2934, 457.0259 110.2934" style="stroke: rgb(0%,0%,100%); stroke-linecap: round; stroke-width: 1; fill: rgb(0%,0%,100%);"/>
			<polygon points="525.8433 128.3749, 525.8433 141.936, 544.6946 119.3342, 525.8433 96.73228, 525.8433 110.2934" style="stroke: rgb(67%,84%,90%); stroke-linecap: round; stroke-width: 1; fill: rgb(67%,84%,90%);"/>
			<polygon points="545.3027 128.3749, 559.7953 128.3749, 559.7953 141.936, 582.3972 119.3342, 559.7953 96.73228, 559.7953 110.2934, 545.3027 110.2934" style="stroke: rgb(0%,0%,100%); stroke-linecap: round; stroke-width: 1; fill: rgb(0%,0%,100%);"/>
			<polygon points="581.9918 128.3749, 581.9918 141.936, 595.3701 119.3342, 581.9918 96.73228, 581.9918 110.2934" style="stroke: rgb(67%,84%,90%); stroke-linecap: round; stroke-width: 1; fill: rgb(67%,84%,90%);"/>
			<polygon points="595.9782 128.3749, 610.4709 128.3749, 610.4709 141.936, 633.0727 119.3342, 610.4709 96.73228, 610.4709 110.2934, 595.9782 110.2934" style="stroke: rgb(0%,0%,100%); stroke-linecap: round; stroke-width: 1; fill: rgb(0%,0%,100%);"/>
			<polygon points="634.4916 128.3749, 739.5921 128.3749, 739.5921 141.936, 762.194 119.3342, 739.5921 96.73228, 739.5921 110.2934, 634.4916 110.2934" style="stroke: rgb(67%,84%,90%); stroke-linecap: round; stroke-width: 1; fill: rgb(67%,84%,90%);"/>
			<polygon points="764.6264 128.3749, 764.6264 141.936, 776.4845 119.3342, 764.6264 96.73228, 764.6264 110.2934" style="stroke: rgb(0%,0%,100%); stroke-linecap: round; stroke-width: 1; fill: rgb(0%,0%,100%);"/>
			<polygon points="130.0672 453.3396, 132.9051 453.3396, 132.9051 543.747, 130.0672 543.747" style="stroke: rgb(0%,50%,0%); stroke-linecap: butt; stroke-width: 1; fill: rgb(0%,50%,0%);"/>
			<polygon points="124.8983 453.3396, 126.824 453.3396, 126.824 543.747, 124.8983 543.747" style="stroke: rgb(100%,64%,0%); stroke-linecap: butt; stroke-width: 1; fill: rgb(100%,64%,0%);"/>
			<polygon points="210.3373 453.3396, 211.9589 453.3396, 211.9589 543.747, 210.3373 543.747" style="stroke: rgb(100%,0%,0%); stroke-linecap: butt; stroke-width: 1; fill: rgb(100%,0%,0%);"/>
			<polygon points="93.78355 453.3396, 95.10111 453.3396, 95.10111 543.747, 93.78355 543.747" style="stroke: rgb(0%,0%,100%); stroke-linecap: butt; stroke-width: 1; fill: rgb(0%,0%,100%);"/>
			<path d="M 42.094488,498.543307 L 799.795276,498.543307 Z" style="stroke: rgb(0%,0%,0%); stroke-linecap: butt; stroke-width: 1;"/>
			<path d="M 42.094488,453.339567 L 42.094488,543.747047 Z" style="stroke: rgb(0%,0%,0%); stroke-linecap: butt; stroke-width: 1;"/>
			<path d="M 42.094488,364.606299 L 799.795276,364.606299 Z" style="stroke: rgb(0%,0%,0%); stroke-linecap: butt; stroke-width: 1;"/>
			<path d="M 42.094488,319.402559 L 42.094488,409.810039 Z" style="stroke: rgb(0%,0%,0%); stroke-linecap: butt; stroke-width: 1;"/>
			<path d="M 42.094488,230.669291 L 799.795276,230.669291 Z" style="stroke: rgb(0%,0%,0%); stroke-linecap: butt; stroke-width: 1;"/>
			<path d="M 42.094488,185.465551 L 42.094488,275.873031 Z" style="stroke: rgb(0%,0%,0%); stroke-linecap: butt; stroke-width: 1;"/>
			<path d="M 799.693924,51.528543 L 799.693924,141.936024 Z" style="stroke: rgb(0%,0%,0%); stroke-linecap: butt; stroke-width: 1;"/>
			<path d="M 42.094488,96.732283 L 799.693924,96.732283 Z" style="stroke: rgb(0%,0%,0%); stroke-linecap: butt; stroke-width: 1;"/>
			<path d="M 42.094488,51.528543 L 42.094488,141.936024 Z" style="stroke: rgb(0%,0%,0%); stroke-linecap: butt; stroke-width: 1;"/>
			<path d="M 297.904652,364.606299 L 297.904652,378.167421 Z" style="stroke: rgb(0%,0%,0%); stroke-linecap: butt; stroke-width: 1;"/>
			<path d="M 553.714817,230.669291 L 553.714817,244.230413 Z" style="stroke: rgb(0%,0%,0%); stroke-linecap: butt; stroke-width: 1;"/>
			<g transform=" matrix(1.000000,0.000000,-0.000000,1.000000,68.952528,543.747047)">
				<text style="font-family: Helvetica; font-size: 14px; fill: rgb(0%,0%,0%);" transform="translate(0,0) scale(1,-1)" x="0" y="0">ORF1ab</text>
			</g>
			<g transform=" matrix(1.000000,0.000000,-0.000000,1.000000,42.094488,409.810039)">
				<text style="font-family: Helvetica; font-size: 14px; fill: rgb(0%,0%,0%);" transform="translate(0,0) scale(1,-1)" x="0" y="0">ORF1ab</text>
			</g>
			<g transform=" matrix(1.000000,0.000000,-0.000000,1.000000,42.094488,275.873031)">
				<text style="font-family: Helvetica; font-size: 14px; fill: rgb(0%,0%,0%);" transform="translate(0,0) scale(1,-1)" x="0" y="0">ORF1ab</text>
			</g>
			<g transform=" matrix(1.000000,0.000000,-0.000000,1.000000,712.025227,275.873031)">
				<text style="font-family: Helvetica; font-size: 14px; fill: rgb(0%,0%,0%);" transform="translate(0,0) scale(1,-1)" x="0" y="0">S</text>
			</g>
			<g transform=" matrix(1.000000,0.000000,-0.000000,1.000000,42.094488,141.936024)">
				<text style="font-family: Helvetica; font-size: 14px; fill: rgb(0%,0%,0%);" transform="translate(0,0) scale(1,-1)" x="0" y="0">S</text>
			</g>
			<g transform=" matrix(1.000000,0.000000,-0.000000,1.000000,342.499134,141.936024)">
				<text style="font-family: Helvetica; font-size: 14px; fill: rgb(0%,0%,0%);" transform="translate(0,0) scale(1,-1)" x="0" y="0">ORF3a</text>
			</g>
			<g transform=" matrix(1.000000,0.000000,-0.000000,1.000000,428.850267,141.936024)">
				<text style="font-family: Helvetica; font-size: 14px; fill: rgb(0%,0%,0%);" transform="translate(0,0) scale(1,-1)" x="0" y="0">E</text>
			</g>
			<g transform=" matrix(1.000000,0.000000,-0.000000,1.000000,457.025872,141.936024)">
				<text style="font-family: Helvetica; font-size: 14px; fill: rgb(0%,0%,0%);" transform="translate(0,0) scale(1,-1)" x="0" y="0">M</text>
			</g>
			<g transform=" matrix(1.000000,0.000000,-0.000000,1.000000,525.843265,141.936024)">
				<text style="font-family: Helvetica; font-size: 14px; fill: rgb(0%,0%,0%);" transform="translate(0,0) scale(1,-1)" x="0" y="0">ORF6</text>
			</g>
			<g transform=" matrix(1.000000,0.000000,-0.000000,1.000000,545.302676,141.936024)">
				<text style="font-family: Helvetica; font-size: 14px; fill: rgb(0%,0%,0%);" transform="translate(0,0) scale(1,-1)" x="0" y="0">ORF7a</text>
			</g>
			<g transform=" matrix(1.000000,0.000000,-0.000000,1.000000,581.991772,141.936024)">
				<text style="font-family: Helvetica; font-size: 14px; fill: rgb(0%,0%,0%);" transform="translate(0,0) scale(1,-1)" x="0" y="0">ORF7b</text>
			</g>
			<g transform=" matrix(1.000000,0.000000,-0.000000,1.000000,595.978223,141.936024)">
				<text style="font-family: Helvetica; font-size: 14px; fill: rgb(0%,0%,0%);" transform="translate(0,0) scale(1,-1)" x="0" y="0">ORF8</text>
			</g>
			<g transform=" matrix(1.000000,0.000000,-0.000000,1.000000,634.491639,141.936024)">
				<text style="font-family: Helvetica; font-size: 14px; fill: rgb(0%,0%,0%);" transform="translate(0,0) scale(1,-1)" x="0" y="0">N</text>
			</g>
			<g transform=" matrix(1.000000,0.000000,-0.000000,1.000000,764.626446,141.936024)">
				<text style="font-family: Helvetica; font-size: 14px; fill: rgb(0%,0%,0%);" transform="translate(0,0) scale(1,-1)" x="0" y="0">ORF10</text>
			</g>
			<g transform=" matrix(0.707107,0.707107,-0.707107,0.707107,130.067239,543.747047)">
				<text style="font-family: Helvetica; font-size: 10px; fill: rgb(0%,50%,0%);" transform="translate(0,0) scale(1,-1)" x="0" y="0">SNP</text>
			</g>
			<g transform=" matrix(0.707107,0.707107,-0.707107,0.707107,124.898333,543.747047)">
				<text style="font-family: Helvetica; font-size: 10px; fill: rgb(100%,64%,0%);" transform="translate(0,0) scale(1,-1)" x="0" y="0">SNP</text>
			</g>
			<g transform=" matrix(0.707107,0.707107,-0.707107,0.707107,210.337306,543.747047)">
				<text style="font-family: Helvetica; font-size: 10px; fill: rgb(100%,0%,0%);" transform="translate(0,0) scale(1,-1)" x="0" y="0">SNP</text>
			</g>
			<g transform=" matrix(0.707107,0.707107,-0.707107,0.707107,93.783547,543.747047)">
				<text style="font-family: Helvetica; font-size: 10px; fill: rgb(0%,0%,100%);" transform="translate(0,0) scale(1,-1)" x="0" y="0">SNP</text>
			</g>
		</g>
	</g>
</svg>
