<?xml version="1.0" encoding="utf-8"?>
<!DOCTYPE svg
  PUBLIC '-//W3C//DTD SVG 1.0//EN'
  'http://www.w3.org/TR/2001/REC-SVG-20010904/DTD/svg10.dtd'>
<svg fill-rule="evenodd" height="595.2755905511812" preserveAspectRatio="xMinYMin meet" version="1.0" viewBox="0 0 841 595" width="841.8897637795277" xmlns="http://www.w3.org/2000/svg" xmlns:xlink="http://www.w3.org/1999/xlink">
	<title>...</title>
	<desc>...</desc>
	<clipPath id="clip">
		<rect height="595.2755905511812" width="841.8897637795277" x="0" y="0"/>
	</clipPath>
	<g id="group" style="clip-path: url(#clip)" transform="scale(1,-1) translate(0,-595)">
		<g transform="">
			<polygon points="68.95253 530.1859, 777.1934 530.1859, 777.1934 543.747, 799.7953 521.1452, 777.1934 498.5433, 777.1934 512.1044, 68.95253 512.1044" style="stroke: rgb(0%,0%,100%); stroke-linecap: round; stroke-width: 1; fill: rgb(0%,0%,100%);"/>
			<polygon points="42.09449 396.2489, 777.1934 396.2489, 777.1934 409.81, 799.7953 387.2082, 777.1934 364.6063, 777.1934 378.1674, 42.09449 378.1674" style="stroke: rgb(0%,0%,100%); stroke-linecap: round; stroke-width: 1; fill: rgb(0%,0%,100%);"/>
			<polygon points="42.09449 262.3119, 688.7139 262.3119, 688.7139 275.873, 711.3158 253.2712, 688.7139 230.6693, 688.7139 244.2304, 42.09449 244.2304" style="stroke: rgb(0%,0%,100%); stroke-linecap: round; stroke-width: 1; fill: rgb(0%,0%,100%);"/>
			<polygon points="712.0252 262.3119, 777.1934 262.3119, 777.1934 275.873, 799.7953 253.2712, 777.1934 230.6693, 777.1934 244.2304, 712.0252 244.2304" style="stroke: rgb(67%,84%,90%); stroke-linecap: round; stroke-width: 1; fill: rgb(67%,84%,90%);"/>
			<polygon points="42.09449 128.3749, 319.0865 128.3749, 319.0865 141.936, 341.6883 119.3342, 319.0865 96.73228, 319.0865 110.2934, 42.09449 110.2934" style="stroke: rgb(67%,84%,90%); stroke-linecap: round; stroke-width: 1; fill: rgb(67%,84%,90%);"/>
			<polygon points="342.4991 128.3749, 403.816 128.3749, 403.816 141.936, 426.4178 119.3342, 403.816 96.73228, 403.816 110.2934, 342.4991 110.2934" style="stroke: rgb(0%,0%,100%); stroke-linecap: round; stroke-width: 1; fill: rgb(0%,0%,100%);"/>
			<polygon points="428.8503 128.3749, 429.3564 128.3749, 429.3564 141.936, 451.9583 119.3342, 429.3564 96.73228, 429.3564 110.2934, 428.8503 110.2934" style="stroke: rgb(67%,84%,90%); stroke-linecap: round; stroke-width: 1; fill: rgb(67%,84%,90%);"/>
			<polygon points="457.0259 128.3749, 502.2279 128.3749, 502.2279 141.936, 524.8298 119.3342, 502.2279 96.73228, 502.2279 110.2934, 457.0259 110.2934" style="stroke: rgb(0%,0%,100%); stroke-linecap: round; stroke-width: 1; fill: rgb(0%,0%,100%);"/>
			<polygon points="525.8433 128.3749, 525.8433 141.936, 544.6946 119.3342, 525.8433 96.73228, 525.8433 110.2934" style="stroke: rgb(67%,84%,90%); stroke-linecap: round; stroke-width: 1; fill: rgb(67%,84%,90%);"/>
			<polygon points="545.3027 128.3749, 559.7953 128.3749, 559.7953 141.936, 582.3972 119.3342, 559.7953 96.73228, 559.7953 110.2934, 545.3027 110.2934" style="stroke: rgb(0%,0%,100%); stroke-linecap: round; stroke-width: 1; fill: rgb(0%,0%,100%);"/>
			<polygon points="581.9918 128.3749, 581.9918 141.936, 595.3701 119.3342, 581.9918 96.73228, 581.9918 110.2934" style="stroke: rgb(67%,84%,90%); stroke-linecap: round; stroke-width: 1; fill: rgb(67%,84%,90%);"/>
			<polygon points="595.9782 128.3749, 610.4709 128.3749, 610.4709 141.936, 633.0727 119.3342, 610.4709 96.73228, 610.4709 110.2934, 595.9782 110.2934" style="stroke: rgb(0%,0%,100%); stroke-linecap: round; stroke-width: 1; fill: rgb(0%,0%,100%);"/>
			<polygon points="634.4916 128.3749, 739.5921 128.3749, 739.5921 141.936, 762.194 119.3342, 739.5921 96.73228, 739.5921 110.2934, 634.4916 110.2934" style="stroke: rgb(67%,84%,90%); stroke-linecap: round; stroke-width: 1; fill: rgb(67%,84%,90%);"/>
			<polygon points="764.6264 128.3749, 764.6264 141.936, 776.4845 119.3342, 764.6264 96.73228, 764.6264 110.2934" style="stroke: rgb(0%,0%,100%); stroke-linecap: round; stroke-width: 1; fill: rgb(0%,0%,100%);"/>
			<polygon points="159.6618 453.3396, 160.2699 453.3396, 160.2699 543.747, 159.6618 543.747" style="stroke: rgb(0%,50%,0%); stroke-linecap: butt; stroke-width: 1; fill: rgb(0%,50%,0%);"/>
			<polygon points="473.5461 319.4026, 474.1542 319.4026, 474.1542 409.81, 473.5461 409.81" style="stroke: rgb(0%,50%,0%); stroke-linecap: butt; stroke-width: 1; fill: rgb(0%,50%,0%);"/>
			<polygon points="277.9385 185.4656, 278.5466 185.4656, 278.5466 275.873, 277.9385 275.873" style="stroke: rgb(0%,50%,0%); stroke-linecap: butt; stroke-width: 1; fill: rgb(0%,50%,0%);"/>
			<polygon points="323.3438 185.4656, 323.9519 185.4656, 323.9519 275.873, 323.3438 275.873" style="stroke: rgb(0%,50%,0%); stroke-linecap: butt; stroke-width: 1; fill: rgb(0%,50%,0%);"/>
			<polygon points="581.7891 185.4656, 582.3972 185.4656, 582.3972 275.873, 581.7891 275.873" style="stroke: rgb(0%,50%,0%); stroke-linecap: butt; stroke-width: 1; fill: rgb(0%,50%,0%);"/>
			<polygon points="86.79032 51.52854, 87.39843 51.52854, 87.39843 141.936, 86.79032 141.936" style="stroke: rgb(0%,50%,0%); stroke-linecap: butt; stroke-width: 1; fill: rgb(0%,50%,0%);"/>
			<polygon points="448.5124 51.52854, 449.1205 51.52854, 449.1205 141.936, 448.5124 141.936" style="stroke: rgb(0%,50%,0%); stroke-linecap: butt; stroke-width: 1; fill: rgb(0%,50%,0%);"/>
			<polygon points="662.5659 51.52854, 663.174 51.52854, 663.174 141.936, 662.5659 141.936" style="stroke: rgb(0%,50%,0%); stroke-linecap: butt; stroke-width: 1; fill: rgb(0%,50%,0%);"/>
			<polygon points="770.9102 51.52854, 771.5183 51.52854, 771.5183 141.936, 770.9102 141.936" style="stroke: rgb(0%,50%,0%); stroke-linecap: butt; stroke-width: 1; fill: rgb(0%,50%,0%);"/>
			<polygon points="472.938 453.3396, 473.5461 453.3396, 473.5461 543.747, 472.938 543.747" style="stroke: rgb(100%,64%,0%); stroke-linecap: butt; stroke-width: 1; fill: rgb(100%,64%,0%);"/>
			<polygon points="132.601 453.3396, 133.2091 453.3396, 133.2091 543.747, 132.601 543.747" style="stroke: rgb(100%,0%,0%); stroke-linecap: butt; stroke-width: 1; fill: rgb(100%,0%,0%);"/>
			<polygon points="157.432 453.3396, 158.0401 453.3396, 158.0401 543.747, 157.432 543.747" style="stroke: rgb(100%,0%,0%); stroke-linecap: butt; stroke-width: 1; fill: rgb(100%,0%,0%);"/>
			<polygon points="275.4047 453.3396, 276.0128 453.3396, 276.0128 543.747, 275.4047 543.747" style="stroke: rgb(100%,0%,0%); stroke-linecap: butt; stroke-width: 1; fill: rgb(100%,0%,0%);"/>
			<polygon points="430.0665 453.3396, 430.6746 453.3396, 430.6746 543.747, 430.0665 543.747" style="stroke: rgb(100%,0%,0%); stroke-linecap: butt; stroke-width: 1; fill: rgb(100%,0%,0%);"/>
			<polygon points="443.6475 453.3396, 444.2556 453.3396, 444.2556 543.747, 443.6475 543.747" style="stroke: rgb(100%,0%,0%); stroke-linecap: butt; stroke-width: 1; fill: rgb(100%,0%,0%);"/>
			<polygon points="468.5799 453.3396, 469.188 453.3396, 469.188 543.747, 468.5799 543.747" style="stroke: rgb(100%,0%,0%); stroke-linecap: butt; stroke-width: 1; fill: rgb(100%,0%,0%);"/>
			<polygon points="653.5456 453.3396, 654.1538 453.3396, 654.1538 543.747, 653.5456 543.747" style="stroke: rgb(100%,0%,0%); stroke-linecap: butt; stroke-width: 1; fill: rgb(100%,0%,0%);"/>
			<polygon points="177.2968 319.4026, 177.905 319.4026, 177.905 409.81, 177.2968 409.81" style="stroke: rgb(100%,0%,0%); stroke-linecap: butt; stroke-width: 1; fill: rgb(100%,0%,0%);"/>
			<polygon points="329.8302 319.4026, 330.4384 319.4026, 330.4384 409.81, 329.8302 409.81" style="stroke: rgb(100%,0%,0%); stroke-linecap: butt; stroke-width: 1; fill: rgb(100%,0%,0%);"/>
			<polygon points="505.573 319.4026, 506.1812 319.4026, 506.1812 409.81, 505.573 409.81" style="stroke: rgb(100%,0%,0%); stroke-linecap: butt; stroke-width: 1; fill: rgb(100%,0%,0%);"/>
			<polygon points="515.7082 319.4026, 516.3163 319.4026, 516.3163 409.81, 515.7082 409.81" style="stroke: rgb(100%,0%,0%); stroke-linecap: butt; stroke-width: 1; fill: rgb(100%,0%,0%);"/>
			<polygon points="611.789 319.4026, 612.3971 319.4026, 612.3971 409.81, 611.789 409.81" style="stroke: rgb(100%,0%,0%); stroke-linecap: butt; stroke-width: 1; fill: rgb(100%,0%,0%);"/>
			<polygon points="702.2955 319.4026, 702.9036 319.4026, 702.9036 409.81, 702.2955 409.81" style="stroke: rgb(100%,0%,0%); stroke-linecap: butt; stroke-width: 1; fill: rgb(100%,0%,0%);"/>
			<polygon points="211.7562 185.4656, 212.3643 185.4656, 212.3643 275.873, 211.7562 275.873" style="stroke: rgb(100%,0%,0%); stroke-linecap: butt; stroke-width: 1; fill: rgb(100%,0%,0%);"/>
			<polygon points="311.7898 185.4656, 312.3979 185.4656, 312.3979 275.873, 311.7898 275.873" style="stroke: rgb(100%,0%,0%); stroke-linecap: butt; stroke-width: 1; fill: rgb(100%,0%,0%);"/>
			<polygon points="463.9177 185.4656, 464.5259 185.4656, 464.5259 275.873, 463.9177 275.873" style="stroke: rgb(100%,0%,0%); stroke-linecap: butt; stroke-width: 1; fill: rgb(100%,0%,0%);"/>
			<polygon points="245.1007 51.52854, 245.7088 51.52854, 245.7088 141.936, 245.1007 141.936" style="stroke: rgb(100%,0%,0%); stroke-linecap: butt; stroke-width: 1; fill: rgb(100%,0%,0%);"/>
			<polygon points="716.9914 51.52854, 717.5995 51.52854, 717.5995 141.936, 716.9914 141.936" style="stroke: rgb(100%,0%,0%); stroke-linecap: butt; stroke-width: 1; fill: rgb(100%,0%,0%);"/>
			<polygon points="334.391 51.52854, 334.9992 51.52854, 334.9992 141.936, 334.391 141.936" style="stroke: rgb(50%,0%,50%); stroke-linecap: butt; stroke-width: 1; fill: rgb(50%,0%,50%);"/>
			<path d="M 42.094488,498.543307 L 799.795276,498.543307 Z" style="stroke: rgb(0%,0%,0%); stroke-linecap: butt; stroke-width: 1;"/>
			<path d="M 42.094488,453.339567 L 42.094488,543.747047 Z" style="stroke: rgb(0%,0%,0%); stroke-linecap: butt; stroke-width: 1;"/>
			<path d="M 42.094488,364.606299 L 799.795276,364.606299 Z" style="stroke: rgb(0%,0%,0%); stroke-linecap: butt; stroke-width: 1;"/>
			<path d="M 42.094488,319.402559 L 42.094488,409.810039 Z" style="stroke: rgb(0%,0%,0%); stroke-linecap: butt; stroke-width: 1;"/>
			<path d="M 42.094488,230.669291 L 799.795276,230.669291 Z" style="stroke: rgb(0%,0%,0%); stroke-linecap: butt; stroke-width: 1;"/>
			<path d="M 42.094488,185.465551 L 42.094488,275.873031 Z" style="stroke: rgb(0%,0%,0%); stroke-linecap: butt; stroke-width: 1;"/>
			<path d="M 799.693924,51.528543 L 799.693924,141.936024 Z" style="stroke: rgb(0%,0%,0%); stroke-linecap: butt; stroke-width: 1;"/>
			<path d="M 42.094488,96.732283 L 799.693924,96.732283 Z" style="stroke: rgb(0%,0%,0%); stroke-linecap: butt; stroke-width: 1;"/>
			<path d="M 42.094488,51.528543 L 42.094488,141.936024 Z" style="stroke: rgb(0%,0%,0%); stroke-linecap: butt; stroke-width: 1;"/>
			<path d="M 297.904652,364.606299 L 297.904652,378.167421 Z" style="stroke: rgb(0%,0%,0%); stroke-linecap: butt; stroke-width: 1;"/>
			<path d="M 553.714817,230.669291 L 553.714817,244.230413 Z" style="stroke: rgb(0%,0%,0%); stroke-linecap: butt; stroke-width: 1;"/>
			<g transform=" matrix(1.000000,0.000000,-0.000000,1.000000,68.952528,543.747047)">
				<text style="font-family: Helvetica; font-size: 14px; fill: rgb(0%,0%,0%);" transform="translate(0,0) scale(1,-1)" x="0" y="0">ORF1ab</text>
			</g>
			<g transform=" matrix(1.000000,0.000000,-0.000000,1.000000,42.094488,409.810039)">
				<text style="font-family: Helvetica; font-size: 14px; fill: rgb(0%,0%,0%);" transform="translate(0,0) scale(1,-1)" x="0" y="0">ORF1ab</text>
			</g>
			<g transform=" matrix(1.000000,0.000000,-0.000000,1.000000,42.094488,275.873031)">
				<text style="font-family: Helvetica; font-size: 14px; fill: rgb(0%,0%,0%);" transform="translate(0,0) scale(1,-1)" x="0" y="0">ORF1ab</text>
			</g>
			<g transform=" matrix(1.000000,0.000000,-0.000000,1.000000,712.025227,275.873031)">
				<text style="font-family: Helvetica; font-size: 14px; fill: rgb(0%,0%,0%);" transform="translate(0,0) scale(1,-1)" x="0" y="0">S</text>
			</g>
			<g transform=" matrix(1.000000,0.000000,-0.000000,1.000000,42.094488,141.936024)">
				<text style="font-family: Helvetica; font-size: 14px; fill: rgb(0%,0%,0%);" transform="translate(0,0) scale(1,-1)" x="0" y="0">S</text>
			</g>
			<g transform=" matrix(1.000000,0.000000,-0.000000,1.000000,342.499134,141.936024)">
				<text style="font-family: Helvetica; font-size: 14px; fill: rgb(0%,0%,0%);" transform="translate(0,0) scale(1,-1)" x="0" y="0">ORF3a</text>
			</g>
			<g transform=" matrix(1.000000,0.000000,-0.000000,1.000000,428.850267,141.936024)">
				<text style="font-family: Helvetica; font-size: 14px; fill: rgb(0%,0%,0%);" transform="translate(0,0) scale(1,-1)" x="0" y="0">E</text>
			</g>
			<g transform=" matrix(1.000000,0.000000,-0.000000,1.000000,457.025872,141.936024)">
				<text style="font-family: Helvetica; font-size: 14px; fill: rgb(0%,0%,0%);" transform="translate(0,0) scale(1,-1)" x="0" y="0">M</text>
			</g>
			<g transform=" matrix(1.000000,0.000000,-0.000000,1.000000,525.843265,141.936024)">
				<text style="font-family: Helvetica; font-size: 14px; fill: rgb(0%,0%,0%);" transform="translate(0,0) scale(1,-1)" x="0" y="0">ORF6</text>
			</g>
			<g transform=" matrix(1.000000,0.000000,-0.000000,1.000000,545.302676,141.936024)">
				<text style="font-family: Helvetica; font-size: 14px; fill: rgb(0%,0%,0%);" transform="translate(0,0) scale(1,-1)" x="0" y="0">ORF7a</text>
			</g>
			<g transform=" matrix(1.000000,0.000000,-0.000000,1.000000,581.991772,141.936024)">
				<text style="font-family: Helvetica; font-size: 14px; fill: rgb(0%,0%,0%);" transform="translate(0,0) scale(1,-1)" x="0" y="0">ORF7b</text>
			</g>
			<g transform=" matrix(1.000000,0.000000,-0.000000,1.000000,595.978223,141.936024)">
				<text style="font-family: Helvetica; font-size: 14px; fill: rgb(0%,0%,0%);" transform="translate(0,0) scale(1,-1)" x="0" y="0">ORF8</text>
			</g>
			<g transform=" matrix(1.000000,0.000000,-0.000000,1.000000,634.491639,141.936024)">
				<text style="font-family: Helvetica; font-size: 14px; fill: rgb(0%,0%,0%);" transform="translate(0,0) scale(1,-1)" x="0" y="0">N</text>
			</g>
			<g transform=" matrix(1.000000,0.000000,-0.000000,1.000000,764.626446,141.936024)">
				<text style="font-family: Helvetica; font-size: 14px; fill: rgb(0%,0%,0%);" transform="translate(0,0) scale(1,-1)" x="0" y="0">ORF10</text>
			</g>
			<g transform=" matrix(0.707107,0.707107,-0.707107,0.707107,159.661759,543.747047)">
				<text style="font-family: Helvetica; font-size: 10px; fill: rgb(0%,50%,0%);" transform="translate(0,0) scale(1,-1)" x="0" y="0">EcoRI</text>
			</g>
			<g transform=" matrix(0.707107,0.707107,-0.707107,0.707107,473.546100,409.810039)">
				<text style="font-family: Helvetica; font-size: 10px; fill: rgb(0%,50%,0%);" transform="translate(0,0) scale(1,-1)" x="0" y="0">EcoRI</text>
			</g>
			<g transform=" matrix(0.707107,0.707107,-0.707107,0.707107,277.938487,275.873031)">
				<text style="font-family: Helvetica; font-size: 10px; fill: rgb(0%,50%,0%);" transform="translate(0,0) scale(1,-1)" x="0" y="0">EcoRI</text>
			</g>
			<g transform=" matrix(0.707107,0.707107,-0.707107,0.707107,323.343777,275.873031)">
				<text style="font-family: Helvetica; font-size: 10px; fill: rgb(0%,50%,0%);" transform="translate(0,0) scale(1,-1)" x="0" y="0">EcoRI</text>
			</g>
			<g transform=" matrix(0.707107,0.707107,-0.707107,0.707107,581.789070,275.873031)">
				<text style="font-family: Helvetica; font-size: 10px; fill: rgb(0%,50%,0%);" transform="translate(0,0) scale(1,-1)" x="0" y="0">EcoRI</text>
			</g>
			<g transform=" matrix(0.707107,0.707107,-0.707107,0.707107,86.790321,141.936024)">
				<text style="font-family: Helvetica; font-size: 10px; fill: rgb(0%,50%,0%);" transform="translate(0,0) scale(1,-1)" x="0" y="0">EcoRI</text>
			</g>
			<g transform=" matrix(0.707107,0.707107,-0.707107,0.707107,448.512380,141.936024)">
				<text style="font-family: Helvetica; font-size: 10px; fill: rgb(0%,50%,0%);" transform="translate(0,0) scale(1,-1)" x="0" y="0">EcoRI</text>
			</g>
			<g transform=" matrix(0.707107,0.707107,-0.707107,0.707107,662.565893,141.936024)">
				<text style="font-family: Helvetica; font-size: 10px; fill: rgb(0%,50%,0%);" transform="translate(0,0) scale(1,-1)" x="0" y="0">EcoRI</text>
			</g>
			<g transform=" matrix(0.707107,0.707107,-0.707107,0.707107,770.910213,141.936024)">
				<text style="font-family: Helvetica; font-size: 10px; fill: rgb(0%,50%,0%);" transform="translate(0,0) scale(1,-1)" x="0" y="0">EcoRI</text>
			</g>
			<g transform=" matrix(0.707107,0.707107,-0.707107,0.707107,472.937994,543.747047)">
				<text style="font-family: Helvetica; font-size: 10px; fill: rgb(100%,64%,0%);" transform="translate(0,0) scale(1,-1)" x="0" y="0">SmaI</text>
			</g>
			<g transform=" matrix(0.707107,0.707107,-0.707107,0.707107,132.601016,543.747047)">
				<text style="font-family: Helvetica; font-size: 10px; fill: rgb(100%,0%,0%);" transform="translate(0,0) scale(1,-1)" x="0" y="0">HindIII</text>
			</g>
			<g transform=" matrix(0.707107,0.707107,-0.707107,0.707107,157.432034,543.747047)">
				<text style="font-family: Helvetica; font-size: 10px; fill: rgb(100%,0%,0%);" transform="translate(0,0) scale(1,-1)" x="0" y="0">HindIII</text>
			</g>
			<g transform=" matrix(0.707107,0.707107,-0.707107,0.707107,275.404709,543.747047)">
				<text style="font-family: Helvetica; font-size: 10px; fill: rgb(100%,0%,0%);" transform="translate(0,0) scale(1,-1)" x="0" y="0">HindIII</text>
			</g>
			<g transform=" matrix(0.707107,0.707107,-0.707107,0.707107,430.066480,543.747047)">
				<text style="font-family: Helvetica; font-size: 10px; fill: rgb(100%,0%,0%);" transform="translate(0,0) scale(1,-1)" x="0" y="0">HindIII</text>
			</g>
			<g transform=" matrix(0.707107,0.707107,-0.707107,0.707107,443.647527,543.747047)">
				<text style="font-family: Helvetica; font-size: 10px; fill: rgb(100%,0%,0%);" transform="translate(0,0) scale(1,-1)" x="0" y="0">HindIII</text>
			</g>
			<g transform=" matrix(0.707107,0.707107,-0.707107,0.707107,468.579897,543.747047)">
				<text style="font-family: Helvetica; font-size: 10px; fill: rgb(100%,0%,0%);" transform="translate(0,0) scale(1,-1)" x="0" y="0">HindIII</text>
			</g>
			<g transform=" matrix(0.707107,0.707107,-0.707107,0.707107,653.545645,543.747047)">
				<text style="font-family: Helvetica; font-size: 10px; fill: rgb(100%,0%,0%);" transform="translate(0,0) scale(1,-1)" x="0" y="0">HindIII</text>
			</g>
			<g transform=" matrix(0.707107,0.707107,-0.707107,0.707107,177.296849,409.810039)">
				<text style="font-family: Helvetica; font-size: 10px; fill: rgb(100%,0%,0%);" transform="translate(0,0) scale(1,-1)" x="0" y="0">HindIII</text>
			</g>
			<g transform=" matrix(0.707107,0.707107,-0.707107,0.707107,329.830247,409.810039)">
				<text style="font-family: Helvetica; font-size: 10px; fill: rgb(100%,0%,0%);" transform="translate(0,0) scale(1,-1)" x="0" y="0">HindIII</text>
			</g>
			<g transform=" matrix(0.707107,0.707107,-0.707107,0.707107,505.573046,409.810039)">
				<text style="font-family: Helvetica; font-size: 10px; fill: rgb(100%,0%,0%);" transform="translate(0,0) scale(1,-1)" x="0" y="0">HindIII</text>
			</g>
			<g transform=" matrix(0.707107,0.707107,-0.707107,0.707107,515.708156,409.810039)">
				<text style="font-family: Helvetica; font-size: 10px; fill: rgb(100%,0%,0%);" transform="translate(0,0) scale(1,-1)" x="0" y="0">HindIII</text>
			</g>
			<g transform=" matrix(0.707107,0.707107,-0.707107,0.707107,611.788994,409.810039)">
				<text style="font-family: Helvetica; font-size: 10px; fill: rgb(100%,0%,0%);" transform="translate(0,0) scale(1,-1)" x="0" y="0">HindIII</text>
			</g>
			<g transform=" matrix(0.707107,0.707107,-0.707107,0.707107,702.295522,409.810039)">
				<text style="font-family: Helvetica; font-size: 10px; fill: rgb(100%,0%,0%);" transform="translate(0,0) scale(1,-1)" x="0" y="0">HindIII</text>
			</g>
			<g transform=" matrix(0.707107,0.707107,-0.707107,0.707107,211.756221,275.873031)">
				<text style="font-family: Helvetica; font-size: 10px; fill: rgb(100%,0%,0%);" transform="translate(0,0) scale(1,-1)" x="0" y="0">HindIII</text>
			</g>
			<g transform=" matrix(0.707107,0.707107,-0.707107,0.707107,311.789752,275.873031)">
				<text style="font-family: Helvetica; font-size: 10px; fill: rgb(100%,0%,0%);" transform="translate(0,0) scale(1,-1)" x="0" y="0">HindIII</text>
			</g>
			<g transform=" matrix(0.707107,0.707107,-0.707107,0.707107,463.917746,275.873031)">
				<text style="font-family: Helvetica; font-size: 10px; fill: rgb(100%,0%,0%);" transform="translate(0,0) scale(1,-1)" x="0" y="0">HindIII</text>
			</g>
			<g transform=" matrix(0.707107,0.707107,-0.707107,0.707107,245.100732,141.936024)">
				<text style="font-family: Helvetica; font-size: 10px; fill: rgb(100%,0%,0%);" transform="translate(0,0) scale(1,-1)" x="0" y="0">HindIII</text>
			</g>
			<g transform=" matrix(0.707107,0.707107,-0.707107,0.707107,716.991431,141.936024)">
				<text style="font-family: Helvetica; font-size: 10px; fill: rgb(100%,0%,0%);" transform="translate(0,0) scale(1,-1)" x="0" y="0">HindIII</text>
			</g>
			<g transform=" matrix(0.707107,0.707107,-0.707107,0.707107,334.391047,141.936024)">
				<text style="font-family: Helvetica; font-size: 10px; fill: rgb(50%,0%,50%);" transform="translate(0,0) scale(1,-1)" x="0" y="0">BamHI</text>
			</g>
		</g>
	</g>
</svg>
