<?xml version="1.0" encoding="iso-8859-1"?>
<!DOCTYPE svg PUBLIC "-//W3C//DTD SVG 1.0//EN" "http://www.w3.org/TR/2001/REC-SVG-20010904/DTD/svg10.dtd">
<svg width="1000" height="600" xmlns="http://www.w3.org/2000/svg" xmlns:xlink="http://www.w3.org/1999/xlink">
<g style="stroke:black;fill:lightgreen" transform="translate(30,30)">
<line x1="834" y1="359" x2="834" y2="364" style="stroke:blue; stroke-width:1"/>
<line x1="834" y1="364" x2="834" y2="364" style="stroke:blue; stroke-width:1"/>
<line x1="834" y1="359" x2="834" y2="355" style="stroke:blue; stroke-width:1"/>
<line x1="834" y1="355" x2="834" y2="355" style="stroke:blue; stroke-width:1"/>
<line x1="834" y1="277" x2="834" y2="281" style="stroke:blue; stroke-width:1"/>
<line x1="834" y1="281" x2="834" y2="281" style="stroke:blue; stroke-width:1"/>
<line x1="834" y1="277" x2="834" y2="273" style="stroke:blue; stroke-width:1"/>
<line x1="834" y1="273" x2="834" y2="273" style="stroke:blue; stroke-width:1"/>
<line x1="834" y1="283" x2="834" y2="289" style="stroke:blue; stroke-width:1"/>
<line x1="834" y1="289" x2="834" y2="289" style="stroke:blue; stroke-width:1"/>
<line x1="834" y1="290" x2="834" y2="297" style="stroke:blue; stroke-width:1"/>
<line x1="834" y1="297" x2="834" y2="297" style="stroke:blue; stroke-width:1"/>
<line x1="834" y1="298" x2="834" y2="306" style="stroke:blue; stroke-width:1"/>
<line x1="834" y1="306" x2="834" y2="306" style="stroke:blue; stroke-width:1"/>
<line x1="834" y1="306" x2="834" y2="314" style="stroke:blue; stroke-width:1"/>
<line x1="834" y1="314" x2="834" y2="314" style="stroke:blue; stroke-width:1"/>
<line x1="834" y1="314" x2="834" y2="322" style="stroke:blue; stroke-width:1"/>
<line x1="834" y1="322" x2="834" y2="322" style="stroke:blue; stroke-width:1"/>
<line x1="834" y1="219" x2="834" y2="223" style="stroke:blue; stroke-width:1"/>
<line x1="834" y1="223" x2="834" y2="223" style="stroke:blue; stroke-width:1"/>
<line x1="834" y1="219" x2="834" y2="215" style="stroke:blue; stroke-width:1"/>
<line x1="834" y1="215" x2="834" y2="215" style="stroke:blue; stroke-width:1"/>
<line x1="834" y1="225" x2="834" y2="231" style="stroke:blue; stroke-width:1"/>
<line x1="834" y1="231" x2="834" y2="231" style="stroke:blue; stroke-width:1"/>
<line x1="834" y1="232" x2="834" y2="239" style="stroke:blue; stroke-width:1"/>
<line x1="834" y1="239" x2="834" y2="239" style="stroke:blue; stroke-width:1"/>
<line x1="834" y1="240" x2="834" y2="248" style="stroke:blue; stroke-width:1"/>
<line x1="834" y1="248" x2="834" y2="248" style="stroke:blue; stroke-width:1"/>
<line x1="834" y1="248" x2="834" y2="256" style="stroke:blue; stroke-width:1"/>
<line x1="834" y1="256" x2="834" y2="256" style="stroke:blue; stroke-width:1"/>
<line x1="834" y1="256" x2="834" y2="264" style="stroke:blue; stroke-width:1"/>
<line x1="834" y1="264" x2="834" y2="264" style="stroke:blue; stroke-width:1"/>
<line x1="834" y1="308" x2="834" y2="331" style="stroke:blue; stroke-width:1"/>
<line x1="834" y1="331" x2="834" y2="331" style="stroke:blue; stroke-width:1"/>
<line x1="834" y1="323" x2="834" y2="339" style="stroke:blue; stroke-width:1"/>
<line x1="834" y1="339" x2="834" y2="339" style="stroke:blue; stroke-width:1"/>
<line x1="834" y1="335" x2="834" y2="347" style="stroke:blue; stroke-width:1"/>
<line x1="834" y1="347" x2="834" y2="347" style="stroke:blue; stroke-width:1"/>
<line x1="834" y1="376" x2="834" y2="380" style="stroke:blue; stroke-width:1"/>
<line x1="834" y1="380" x2="834" y2="380" style="stroke:blue; stroke-width:1"/>
<line x1="834" y1="376" x2="834" y2="372" style="stroke:blue; stroke-width:1"/>
<line x1="834" y1="372" x2="834" y2="372" style="stroke:blue; stroke-width:1"/>
<line x1="834" y1="393" x2="834" y2="397" style="stroke:blue; stroke-width:1"/>
<line x1="834" y1="397" x2="834" y2="397" style="stroke:blue; stroke-width:1"/>
<line x1="834" y1="393" x2="834" y2="388" style="stroke:blue; stroke-width:1"/>
<line x1="834" y1="388" x2="834" y2="388" style="stroke:blue; stroke-width:1"/>
<line x1="834" y1="409" x2="834" y2="413" style="stroke:blue; stroke-width:1"/>
<line x1="834" y1="413" x2="834" y2="413" style="stroke:blue; stroke-width:1"/>
<line x1="834" y1="409" x2="834" y2="405" style="stroke:blue; stroke-width:1"/>
<line x1="834" y1="405" x2="834" y2="405" style="stroke:blue; stroke-width:1"/>
<line x1="834" y1="426" x2="834" y2="430" style="stroke:blue; stroke-width:1"/>
<line x1="834" y1="430" x2="834" y2="430" style="stroke:blue; stroke-width:1"/>
<line x1="834" y1="426" x2="834" y2="422" style="stroke:blue; stroke-width:1"/>
<line x1="834" y1="422" x2="834" y2="422" style="stroke:blue; stroke-width:1"/>
<line x1="834" y1="432" x2="834" y2="438" style="stroke:blue; stroke-width:1"/>
<line x1="834" y1="438" x2="834" y2="438" style="stroke:blue; stroke-width:1"/>
<line x1="557" y1="439" x2="557" y2="446" style="stroke:blue; stroke-width:1"/>
<line x1="557" y1="446" x2="834" y2="446" style="stroke:blue; stroke-width:1"/>
<line x1="834" y1="459" x2="834" y2="463" style="stroke:blue; stroke-width:1"/>
<line x1="834" y1="463" x2="834" y2="463" style="stroke:blue; stroke-width:1"/>
<line x1="834" y1="459" x2="834" y2="455" style="stroke:blue; stroke-width:1"/>
<line x1="834" y1="455" x2="834" y2="455" style="stroke:blue; stroke-width:1"/>
<line x1="16" y1="454" x2="16" y2="471" style="stroke:blue; stroke-width:1"/>
<line x1="16" y1="471" x2="834" y2="471" style="stroke:blue; stroke-width:1"/>
<line x1="834" y1="484" x2="834" y2="488" style="stroke:blue; stroke-width:1"/>
<line x1="834" y1="488" x2="834" y2="488" style="stroke:blue; stroke-width:1"/>
<line x1="834" y1="484" x2="834" y2="480" style="stroke:blue; stroke-width:1"/>
<line x1="834" y1="480" x2="834" y2="480" style="stroke:blue; stroke-width:1"/>
<line x1="16" y1="483" x2="16" y2="496" style="stroke:blue; stroke-width:1"/>
<line x1="16" y1="496" x2="834" y2="496" style="stroke:blue; stroke-width:1"/>
<line x1="834" y1="508" x2="834" y2="513" style="stroke:blue; stroke-width:1"/>
<line x1="834" y1="513" x2="834" y2="513" style="stroke:blue; stroke-width:1"/>
<line x1="834" y1="508" x2="834" y2="504" style="stroke:blue; stroke-width:1"/>
<line x1="834" y1="504" x2="834" y2="504" style="stroke:blue; stroke-width:1"/>
<line x1="834" y1="515" x2="834" y2="521" style="stroke:blue; stroke-width:1"/>
<line x1="834" y1="521" x2="834" y2="521" style="stroke:blue; stroke-width:1"/>
<line x1="834" y1="522" x2="834" y2="529" style="stroke:blue; stroke-width:1"/>
<line x1="834" y1="529" x2="834" y2="529" style="stroke:blue; stroke-width:1"/>
<line x1="834" y1="530" x2="834" y2="537" style="stroke:blue; stroke-width:1"/>
<line x1="834" y1="537" x2="834" y2="537" style="stroke:blue; stroke-width:1"/>
<line x1="834" y1="538" x2="834" y2="546" style="stroke:blue; stroke-width:1"/>
<line x1="834" y1="546" x2="834" y2="546" style="stroke:blue; stroke-width:1"/>
<line x1="834" y1="546" x2="834" y2="554" style="stroke:blue; stroke-width:1"/>
<line x1="834" y1="554" x2="834" y2="554" style="stroke:blue; stroke-width:1"/>
<line x1="16" y1="190" x2="16" y2="206" style="stroke:blue; stroke-width:1"/>
<line x1="16" y1="206" x2="834" y2="206" style="stroke:blue; stroke-width:1"/>
<line x1="834" y1="186" x2="834" y2="190" style="stroke:blue; stroke-width:1"/>
<line x1="834" y1="190" x2="834" y2="190" style="stroke:blue; stroke-width:1"/>
<line x1="834" y1="186" x2="834" y2="182" style="stroke:blue; stroke-width:1"/>
<line x1="834" y1="182" x2="834" y2="182" style="stroke:blue; stroke-width:1"/>
<line x1="834" y1="192" x2="834" y2="198" style="stroke:blue; stroke-width:1"/>
<line x1="834" y1="198" x2="834" y2="198" style="stroke:blue; stroke-width:1"/>
<line x1="834" y1="169" x2="834" y2="173" style="stroke:blue; stroke-width:1"/>
<line x1="834" y1="173" x2="834" y2="173" style="stroke:blue; stroke-width:1"/>
<line x1="834" y1="169" x2="834" y2="165" style="stroke:blue; stroke-width:1"/>
<line x1="834" y1="165" x2="834" y2="165" style="stroke:blue; stroke-width:1"/>
<line x1="16" y1="145" x2="16" y2="157" style="stroke:blue; stroke-width:1"/>
<line x1="16" y1="157" x2="834" y2="157" style="stroke:blue; stroke-width:1"/>
<line x1="834" y1="20" x2="834" y2="24" style="stroke:blue; stroke-width:1"/>
<line x1="834" y1="24" x2="834" y2="24" style="stroke:blue; stroke-width:1"/>
<line x1="834" y1="20" x2="834" y2="16" style="stroke:blue; stroke-width:1"/>
<line x1="834" y1="16" x2="834" y2="16" style="stroke:blue; stroke-width:1"/>
<line x1="834" y1="26" x2="834" y2="33" style="stroke:blue; stroke-width:1"/>
<line x1="834" y1="33" x2="834" y2="33" style="stroke:blue; stroke-width:1"/>
<line x1="834" y1="34" x2="834" y2="41" style="stroke:blue; stroke-width:1"/>
<line x1="834" y1="41" x2="834" y2="41" style="stroke:blue; stroke-width:1"/>
<line x1="834" y1="41" x2="834" y2="49" style="stroke:blue; stroke-width:1"/>
<line x1="834" y1="49" x2="834" y2="49" style="stroke:blue; stroke-width:1"/>
<line x1="834" y1="49" x2="834" y2="57" style="stroke:blue; stroke-width:1"/>
<line x1="834" y1="57" x2="834" y2="57" style="stroke:blue; stroke-width:1"/>
<line x1="834" y1="58" x2="834" y2="66" style="stroke:blue; stroke-width:1"/>
<line x1="834" y1="66" x2="834" y2="66" style="stroke:blue; stroke-width:1"/>
<line x1="834" y1="66" x2="834" y2="74" style="stroke:blue; stroke-width:1"/>
<line x1="834" y1="74" x2="834" y2="74" style="stroke:blue; stroke-width:1"/>
<line x1="834" y1="74" x2="834" y2="82" style="stroke:blue; stroke-width:1"/>
<line x1="834" y1="82" x2="834" y2="82" style="stroke:blue; stroke-width:1"/>
<line x1="834" y1="82" x2="834" y2="90" style="stroke:blue; stroke-width:1"/>
<line x1="834" y1="90" x2="834" y2="90" style="stroke:blue; stroke-width:1"/>
<line x1="834" y1="91" x2="834" y2="99" style="stroke:blue; stroke-width:1"/>
<line x1="834" y1="99" x2="834" y2="99" style="stroke:blue; stroke-width:1"/>
<line x1="834" y1="99" x2="834" y2="107" style="stroke:blue; stroke-width:1"/>
<line x1="834" y1="107" x2="834" y2="107" style="stroke:blue; stroke-width:1"/>
<line x1="834" y1="107" x2="834" y2="115" style="stroke:blue; stroke-width:1"/>
<line x1="834" y1="115" x2="834" y2="115" style="stroke:blue; stroke-width:1"/>
<line x1="834" y1="115" x2="834" y2="124" style="stroke:blue; stroke-width:1"/>
<line x1="834" y1="124" x2="834" y2="124" style="stroke:blue; stroke-width:1"/>
<line x1="834" y1="124" x2="834" y2="132" style="stroke:blue; stroke-width:1"/>
<line x1="834" y1="132" x2="834" y2="132" style="stroke:blue; stroke-width:1"/>
<line x1="16" y1="144" x2="16" y2="148" style="stroke:blue; stroke-width:1"/>
<line x1="16" y1="148" x2="834" y2="148" style="stroke:blue; stroke-width:1"/>
<line x1="16" y1="144" x2="16" y2="140" style="stroke:blue; stroke-width:1"/>
<line x1="16" y1="140" x2="834" y2="140" style="stroke:blue; stroke-width:1"/>
<line x1="16" y1="347" x2="16" y2="359" style="stroke:blue; stroke-width:1"/>
<line x1="16" y1="359" x2="834" y2="359" style="stroke:blue; stroke-width:1"/>
<line x1="834" y1="283" x2="834" y2="277" style="stroke:blue; stroke-width:1"/>
<line x1="834" y1="277" x2="834" y2="277" style="stroke:blue; stroke-width:1"/>
<line x1="834" y1="290" x2="834" y2="283" style="stroke:blue; stroke-width:1"/>
<line x1="834" y1="283" x2="834" y2="283" style="stroke:blue; stroke-width:1"/>
<line x1="834" y1="298" x2="834" y2="290" style="stroke:blue; stroke-width:1"/>
<line x1="834" y1="290" x2="834" y2="290" style="stroke:blue; stroke-width:1"/>
<line x1="834" y1="306" x2="834" y2="298" style="stroke:blue; stroke-width:1"/>
<line x1="834" y1="298" x2="834" y2="298" style="stroke:blue; stroke-width:1"/>
<line x1="834" y1="314" x2="834" y2="306" style="stroke:blue; stroke-width:1"/>
<line x1="834" y1="306" x2="834" y2="306" style="stroke:blue; stroke-width:1"/>
<line x1="834" y1="285" x2="834" y2="314" style="stroke:blue; stroke-width:1"/>
<line x1="834" y1="314" x2="834" y2="314" style="stroke:blue; stroke-width:1"/>
<line x1="834" y1="225" x2="834" y2="219" style="stroke:blue; stroke-width:1"/>
<line x1="834" y1="219" x2="834" y2="219" style="stroke:blue; stroke-width:1"/>
<line x1="834" y1="232" x2="834" y2="225" style="stroke:blue; stroke-width:1"/>
<line x1="834" y1="225" x2="834" y2="225" style="stroke:blue; stroke-width:1"/>
<line x1="834" y1="240" x2="834" y2="232" style="stroke:blue; stroke-width:1"/>
<line x1="834" y1="232" x2="834" y2="232" style="stroke:blue; stroke-width:1"/>
<line x1="834" y1="248" x2="834" y2="240" style="stroke:blue; stroke-width:1"/>
<line x1="834" y1="240" x2="834" y2="240" style="stroke:blue; stroke-width:1"/>
<line x1="834" y1="256" x2="834" y2="248" style="stroke:blue; stroke-width:1"/>
<line x1="834" y1="248" x2="834" y2="248" style="stroke:blue; stroke-width:1"/>
<line x1="834" y1="285" x2="834" y2="256" style="stroke:blue; stroke-width:1"/>
<line x1="834" y1="256" x2="834" y2="256" style="stroke:blue; stroke-width:1"/>
<line x1="834" y1="308" x2="834" y2="285" style="stroke:blue; stroke-width:1"/>
<line x1="834" y1="285" x2="834" y2="285" style="stroke:blue; stroke-width:1"/>
<line x1="834" y1="323" x2="834" y2="308" style="stroke:blue; stroke-width:1"/>
<line x1="834" y1="308" x2="834" y2="308" style="stroke:blue; stroke-width:1"/>
<line x1="834" y1="335" x2="834" y2="323" style="stroke:blue; stroke-width:1"/>
<line x1="834" y1="323" x2="834" y2="323" style="stroke:blue; stroke-width:1"/>
<line x1="16" y1="347" x2="16" y2="335" style="stroke:blue; stroke-width:1"/>
<line x1="16" y1="335" x2="834" y2="335" style="stroke:blue; stroke-width:1"/>
<line x1="16" y1="362" x2="16" y2="347" style="stroke:blue; stroke-width:1"/>
<line x1="16" y1="347" x2="16" y2="347" style="stroke:blue; stroke-width:1"/>
<line x1="16" y1="362" x2="16" y2="376" style="stroke:blue; stroke-width:1"/>
<line x1="16" y1="376" x2="834" y2="376" style="stroke:blue; stroke-width:1"/>
<line x1="16" y1="377" x2="16" y2="362" style="stroke:blue; stroke-width:1"/>
<line x1="16" y1="362" x2="16" y2="362" style="stroke:blue; stroke-width:1"/>
<line x1="16" y1="377" x2="16" y2="393" style="stroke:blue; stroke-width:1"/>
<line x1="16" y1="393" x2="834" y2="393" style="stroke:blue; stroke-width:1"/>
<line x1="16" y1="393" x2="16" y2="377" style="stroke:blue; stroke-width:1"/>
<line x1="16" y1="377" x2="16" y2="377" style="stroke:blue; stroke-width:1"/>
<line x1="16" y1="393" x2="16" y2="409" style="stroke:blue; stroke-width:1"/>
<line x1="16" y1="409" x2="834" y2="409" style="stroke:blue; stroke-width:1"/>
<line x1="16" y1="416" x2="16" y2="393" style="stroke:blue; stroke-width:1"/>
<line x1="16" y1="393" x2="16" y2="393" style="stroke:blue; stroke-width:1"/>
<line x1="834" y1="432" x2="834" y2="426" style="stroke:blue; stroke-width:1"/>
<line x1="834" y1="426" x2="834" y2="426" style="stroke:blue; stroke-width:1"/>
<line x1="557" y1="439" x2="557" y2="432" style="stroke:blue; stroke-width:1"/>
<line x1="557" y1="432" x2="834" y2="432" style="stroke:blue; stroke-width:1"/>
<line x1="16" y1="416" x2="16" y2="439" style="stroke:blue; stroke-width:1"/>
<line x1="16" y1="439" x2="557" y2="439" style="stroke:blue; stroke-width:1"/>
<line x1="16" y1="437" x2="16" y2="416" style="stroke:blue; stroke-width:1"/>
<line x1="16" y1="416" x2="16" y2="416" style="stroke:blue; stroke-width:1"/>
<line x1="16" y1="437" x2="16" y2="459" style="stroke:blue; stroke-width:1"/>
<line x1="16" y1="459" x2="834" y2="459" style="stroke:blue; stroke-width:1"/>
<line x1="16" y1="454" x2="16" y2="437" style="stroke:blue; stroke-width:1"/>
<line x1="16" y1="437" x2="16" y2="437" style="stroke:blue; stroke-width:1"/>
<line x1="16" y1="469" x2="16" y2="454" style="stroke:blue; stroke-width:1"/>
<line x1="16" y1="454" x2="16" y2="454" style="stroke:blue; stroke-width:1"/>
<line x1="16" y1="469" x2="16" y2="484" style="stroke:blue; stroke-width:1"/>
<line x1="16" y1="484" x2="834" y2="484" style="stroke:blue; stroke-width:1"/>
<line x1="16" y1="483" x2="16" y2="469" style="stroke:blue; stroke-width:1"/>
<line x1="16" y1="469" x2="16" y2="469" style="stroke:blue; stroke-width:1"/>
<line x1="16" y1="482" x2="16" y2="483" style="stroke:blue; stroke-width:1"/>
<line x1="16" y1="483" x2="16" y2="483" style="stroke:blue; stroke-width:1"/>
<line x1="834" y1="515" x2="834" y2="508" style="stroke:blue; stroke-width:1"/>
<line x1="834" y1="508" x2="834" y2="508" style="stroke:blue; stroke-width:1"/>
<line x1="834" y1="522" x2="834" y2="515" style="stroke:blue; stroke-width:1"/>
<line x1="834" y1="515" x2="834" y2="515" style="stroke:blue; stroke-width:1"/>
<line x1="834" y1="530" x2="834" y2="522" style="stroke:blue; stroke-width:1"/>
<line x1="834" y1="522" x2="834" y2="522" style="stroke:blue; stroke-width:1"/>
<line x1="834" y1="538" x2="834" y2="530" style="stroke:blue; stroke-width:1"/>
<line x1="834" y1="530" x2="834" y2="530" style="stroke:blue; stroke-width:1"/>
<line x1="834" y1="546" x2="834" y2="538" style="stroke:blue; stroke-width:1"/>
<line x1="834" y1="538" x2="834" y2="538" style="stroke:blue; stroke-width:1"/>
<line x1="16" y1="482" x2="16" y2="546" style="stroke:blue; stroke-width:1"/>
<line x1="16" y1="546" x2="834" y2="546" style="stroke:blue; stroke-width:1"/>
<line x1="16" y1="482" x2="16" y2="190" style="stroke:blue; stroke-width:1"/>
<line x1="16" y1="190" x2="16" y2="190" style="stroke:blue; stroke-width:1"/>
<line x1="834" y1="192" x2="834" y2="186" style="stroke:blue; stroke-width:1"/>
<line x1="834" y1="186" x2="834" y2="186" style="stroke:blue; stroke-width:1"/>
<line x1="16" y1="175" x2="16" y2="192" style="stroke:blue; stroke-width:1"/>
<line x1="16" y1="192" x2="834" y2="192" style="stroke:blue; stroke-width:1"/>
<line x1="16" y1="190" x2="16" y2="175" style="stroke:blue; stroke-width:1"/>
<line x1="16" y1="175" x2="16" y2="175" style="stroke:blue; stroke-width:1"/>
<line x1="16" y1="157" x2="16" y2="169" style="stroke:blue; stroke-width:1"/>
<line x1="16" y1="169" x2="834" y2="169" style="stroke:blue; stroke-width:1"/>
<line x1="16" y1="175" x2="16" y2="157" style="stroke:blue; stroke-width:1"/>
<line x1="16" y1="157" x2="16" y2="157" style="stroke:blue; stroke-width:1"/>
<line x1="16" y1="157" x2="16" y2="145" style="stroke:blue; stroke-width:1"/>
<line x1="16" y1="145" x2="16" y2="145" style="stroke:blue; stroke-width:1"/>
<line x1="834" y1="26" x2="834" y2="20" style="stroke:blue; stroke-width:1"/>
<line x1="834" y1="20" x2="834" y2="20" style="stroke:blue; stroke-width:1"/>
<line x1="834" y1="34" x2="834" y2="26" style="stroke:blue; stroke-width:1"/>
<line x1="834" y1="26" x2="834" y2="26" style="stroke:blue; stroke-width:1"/>
<line x1="834" y1="41" x2="834" y2="34" style="stroke:blue; stroke-width:1"/>
<line x1="834" y1="34" x2="834" y2="34" style="stroke:blue; stroke-width:1"/>
<line x1="834" y1="49" x2="834" y2="41" style="stroke:blue; stroke-width:1"/>
<line x1="834" y1="41" x2="834" y2="41" style="stroke:blue; stroke-width:1"/>
<line x1="834" y1="58" x2="834" y2="49" style="stroke:blue; stroke-width:1"/>
<line x1="834" y1="49" x2="834" y2="49" style="stroke:blue; stroke-width:1"/>
<line x1="834" y1="66" x2="834" y2="58" style="stroke:blue; stroke-width:1"/>
<line x1="834" y1="58" x2="834" y2="58" style="stroke:blue; stroke-width:1"/>
<line x1="834" y1="74" x2="834" y2="66" style="stroke:blue; stroke-width:1"/>
<line x1="834" y1="66" x2="834" y2="66" style="stroke:blue; stroke-width:1"/>
<line x1="834" y1="82" x2="834" y2="74" style="stroke:blue; stroke-width:1"/>
<line x1="834" y1="74" x2="834" y2="74" style="stroke:blue; stroke-width:1"/>
<line x1="834" y1="91" x2="834" y2="82" style="stroke:blue; stroke-width:1"/>
<line x1="834" y1="82" x2="834" y2="82" style="stroke:blue; stroke-width:1"/>
<line x1="834" y1="99" x2="834" y2="91" style="stroke:blue; stroke-width:1"/>
<line x1="834" y1="91" x2="834" y2="91" style="stroke:blue; stroke-width:1"/>
<line x1="834" y1="107" x2="834" y2="99" style="stroke:blue; stroke-width:1"/>
<line x1="834" y1="99" x2="834" y2="99" style="stroke:blue; stroke-width:1"/>
<line x1="834" y1="115" x2="834" y2="107" style="stroke:blue; stroke-width:1"/>
<line x1="834" y1="107" x2="834" y2="107" style="stroke:blue; stroke-width:1"/>
<line x1="834" y1="124" x2="834" y2="115" style="stroke:blue; stroke-width:1"/>
<line x1="834" y1="115" x2="834" y2="115" style="stroke:blue; stroke-width:1"/>
<line x1="16" y1="134" x2="16" y2="124" style="stroke:blue; stroke-width:1"/>
<line x1="16" y1="124" x2="834" y2="124" style="stroke:blue; stroke-width:1"/>
<line x1="16" y1="145" x2="16" y2="134" style="stroke:blue; stroke-width:1"/>
<line x1="16" y1="134" x2="16" y2="134" style="stroke:blue; stroke-width:1"/>
<line x1="16" y1="134" x2="16" y2="144" style="stroke:blue; stroke-width:1"/>
<line x1="16" y1="144" x2="16" y2="144" style="stroke:blue; stroke-width:1"/>
<text x="838" y="557" font-weight = "10" font-family="verdana" fill="black" font-size="14">MT259227.1</text>
<text x="838" y="549" font-weight = "10" font-family="verdana" fill="black" font-size="14">MT259226.1</text>
<text x="838" y="540" font-weight = "10" font-family="verdana" fill="black" font-size="14">MT259228.1</text>
<text x="838" y="532" font-weight = "10" font-family="verdana" fill="black" font-size="14">MN996530.1</text>
<text x="838" y="524" font-weight = "10" font-family="verdana" fill="black" font-size="14">MT259230.1</text>
<text x="838" y="516" font-weight = "10" font-family="verdana" fill="black" font-size="14">MT259229.1</text>
<text x="838" y="507" font-weight = "10" font-family="verdana" fill="black" font-size="14">MT259231.1</text>
<text x="838" y="499" font-weight = "10" font-family="verdana" fill="black" font-size="14">MT123293.2</text>
<text x="838" y="491" font-weight = "10" font-family="verdana" fill="black" font-size="14">MT123291.2</text>
<text x="838" y="483" font-weight = "10" font-family="verdana" fill="black" font-size="14">MT039873.1</text>
<text x="838" y="474" font-weight = "10" font-family="verdana" fill="black" font-size="14">MT123290.1</text>
<text x="838" y="466" font-weight = "10" font-family="verdana" fill="black" font-size="14">MT291833.1</text>
<text x="838" y="458" font-weight = "10" font-family="verdana" fill="black" font-size="14">LR757996.1</text>
<text x="838" y="449" font-weight = "10" font-family="verdana" fill="black" font-size="14">LR757997.1</text>
<text x="838" y="441" font-weight = "10" font-family="verdana" fill="black" font-size="14">MT291832.1</text>
<text x="838" y="433" font-weight = "10" font-family="verdana" fill="black" font-size="14">MT291834.1</text>
<text x="838" y="425" font-weight = "10" font-family="verdana" fill="black" font-size="14">MT291836.1</text>
<text x="838" y="416" font-weight = "10" font-family="verdana" fill="black" font-size="14">MT291831.1</text>
<text x="838" y="408" font-weight = "10" font-family="verdana" fill="black" font-size="14">MT291835.1</text>
<text x="838" y="400" font-weight = "10" font-family="verdana" fill="black" font-size="14">MN988668.1</text>
<text x="838" y="391" font-weight = "10" font-family="verdana" fill="black" font-size="14">MN988669.1</text>
<text x="838" y="383" font-weight = "10" font-family="verdana" fill="black" font-size="14">MT093631.2</text>
<text x="838" y="375" font-weight = "10" font-family="verdana" fill="black" font-size="14">MN996531.1</text>
<text x="838" y="367" font-weight = "10" font-family="verdana" fill="black" font-size="14">MT039874.1</text>
<text x="838" y="358" font-weight = "10" font-family="verdana" fill="black" font-size="14">MN996529.1</text>
<text x="838" y="350" font-weight = "10" font-family="verdana" fill="black" font-size="14">MT226610.1</text>
<text x="838" y="342" font-weight = "10" font-family="verdana" fill="black" font-size="14">MT019530.1</text>
<text x="838" y="334" font-weight = "10" font-family="verdana" fill="black" font-size="14">MT281577.1</text>
<text x="838" y="325" font-weight = "10" font-family="verdana" fill="black" font-size="14">MT049951.1</text>
<text x="838" y="317" font-weight = "10" font-family="verdana" fill="black" font-size="14">MT123292.2</text>
<text x="838" y="309" font-weight = "10" font-family="verdana" fill="black" font-size="14">MN975262.1</text>
<text x="838" y="300" font-weight = "10" font-family="verdana" fill="black" font-size="14">MT135043.1</text>
<text x="838" y="292" font-weight = "10" font-family="verdana" fill="black" font-size="14">MT135044.1</text>
<text x="838" y="284" font-weight = "10" font-family="verdana" fill="black" font-size="14">MT135041.1</text>
<text x="838" y="276" font-weight = "10" font-family="verdana" fill="black" font-size="14">MT135042.1</text>
<text x="838" y="267" font-weight = "10" font-family="verdana" fill="black" font-size="14">MT019529.1</text>
<text x="838" y="259" font-weight = "10" font-family="verdana" fill="black" font-size="14">MT121215.1</text>
<text x="838" y="251" font-weight = "10" font-family="verdana" fill="black" font-size="14">MT019533.1</text>
<text x="838" y="242" font-weight = "10" font-family="verdana" fill="black" font-size="14">MT019531.1</text>
<text x="838" y="234" font-weight = "10" font-family="verdana" fill="black" font-size="14">MN996528.1</text>
<text x="838" y="226" font-weight = "10" font-family="verdana" fill="black" font-size="14">MN908947.3</text>
<text x="838" y="218" font-weight = "10" font-family="verdana" fill="black" font-size="14">MT019532.1</text>
<text x="838" y="209" font-weight = "10" font-family="verdana" fill="black" font-size="14">MN938384.1</text>
<text x="838" y="201" font-weight = "10" font-family="verdana" fill="black" font-size="14">MT291829.1</text>
<text x="838" y="193" font-weight = "10" font-family="verdana" fill="black" font-size="14">MT291826.1</text>
<text x="838" y="185" font-weight = "10" font-family="verdana" fill="black" font-size="14">MT291830.1</text>
<text x="838" y="176" font-weight = "10" font-family="verdana" fill="black" font-size="14">MT291827.1</text>
<text x="838" y="168" font-weight = "10" font-family="verdana" fill="black" font-size="14">MT291828.1</text>
<text x="838" y="160" font-weight = "10" font-family="verdana" fill="black" font-size="14">MN996527.1</text>
<text x="838" y="151" font-weight = "10" font-family="verdana" fill="black" font-size="14">LR757995.1</text>
<text x="838" y="143" font-weight = "10" font-family="verdana" fill="black" font-size="14">LR757998.1</text>
<text x="838" y="135" font-weight = "10" font-family="verdana" fill="black" font-size="14">MT253710.1</text>
<text x="838" y="127" font-weight = "10" font-family="verdana" fill="black" font-size="14">MT253709.1</text>
<text x="838" y="118" font-weight = "10" font-family="verdana" fill="black" font-size="14">MT253708.1</text>
<text x="838" y="110" font-weight = "10" font-family="verdana" fill="black" font-size="14">MT253707.1</text>
<text x="838" y="102" font-weight = "10" font-family="verdana" fill="black" font-size="14">MT253706.1</text>
<text x="838" y="93" font-weight = "10" font-family="verdana" fill="black" font-size="14">MT253705.1</text>
<text x="838" y="85" font-weight = "10" font-family="verdana" fill="black" font-size="14">MT253704.1</text>
<text x="838" y="77" font-weight = "10" font-family="verdana" fill="black" font-size="14">MT253703.1</text>
<text x="838" y="69" font-weight = "10" font-family="verdana" fill="black" font-size="14">MT253702.1</text>
<text x="838" y="60" font-weight = "10" font-family="verdana" fill="black" font-size="14">MT253701.1</text>
<text x="838" y="52" font-weight = "10" font-family="verdana" fill="black" font-size="14">MT253700.1</text>
<text x="838" y="44" font-weight = "10" font-family="verdana" fill="black" font-size="14">MT253699.1</text>
<text x="838" y="36" font-weight = "10" font-family="verdana" fill="black" font-size="14">MT253698.1</text>
<text x="838" y="27" font-weight = "10" font-family="verdana" fill="black" font-size="14">MT253696.1</text>
<text x="838" y="19" font-weight = "10" font-family="verdana" fill="black" font-size="14">MT253697.1</text>
</g></svg>