<?xml version="1.0" encoding="iso-8859-1"?>
<!DOCTYPE svg PUBLIC "-//W3C//DTD SVG 1.0//EN" "http://www.w3.org/TR/2001/REC-SVG-20010904/DTD/svg10.dtd">
<svg width="550" height="1020" xmlns="http://www.w3.org/2000/svg" xmlns:xlink="http://www.w3.org/1999/xlink">
<g style="stroke:black;fill:lightgreen" transform="translate(30,30)">
<line x1="384" y1="656" x2="384" y2="661" style="stroke:blue; stroke-width:1"/>
<line x1="384" y1="661" x2="384" y2="661" style="stroke:blue; stroke-width:1"/>
<line x1="384" y1="656" x2="384" y2="651" style="stroke:blue; stroke-width:1"/>
<line x1="384" y1="651" x2="384" y2="651" style="stroke:blue; stroke-width:1"/>
<line x1="384" y1="627" x2="384" y2="632" style="stroke:blue; stroke-width:1"/>
<line x1="384" y1="632" x2="384" y2="632" style="stroke:blue; stroke-width:1"/>
<line x1="384" y1="627" x2="384" y2="622" style="stroke:blue; stroke-width:1"/>
<line x1="384" y1="622" x2="384" y2="622" style="stroke:blue; stroke-width:1"/>
<line x1="384" y1="634" x2="384" y2="642" style="stroke:blue; stroke-width:1"/>
<line x1="384" y1="642" x2="384" y2="642" style="stroke:blue; stroke-width:1"/>
<line x1="16" y1="658" x2="16" y2="671" style="stroke:blue; stroke-width:1"/>
<line x1="16" y1="671" x2="384" y2="671" style="stroke:blue; stroke-width:1"/>
<line x1="16" y1="669" x2="16" y2="681" style="stroke:blue; stroke-width:1"/>
<line x1="16" y1="681" x2="384" y2="681" style="stroke:blue; stroke-width:1"/>
<line x1="384" y1="559" x2="384" y2="563" style="stroke:blue; stroke-width:1"/>
<line x1="384" y1="563" x2="384" y2="563" style="stroke:blue; stroke-width:1"/>
<line x1="384" y1="559" x2="384" y2="554" style="stroke:blue; stroke-width:1"/>
<line x1="384" y1="554" x2="384" y2="554" style="stroke:blue; stroke-width:1"/>
<line x1="384" y1="539" x2="384" y2="544" style="stroke:blue; stroke-width:1"/>
<line x1="384" y1="544" x2="384" y2="544" style="stroke:blue; stroke-width:1"/>
<line x1="384" y1="539" x2="384" y2="534" style="stroke:blue; stroke-width:1"/>
<line x1="384" y1="534" x2="384" y2="534" style="stroke:blue; stroke-width:1"/>
<line x1="384" y1="519" x2="384" y2="524" style="stroke:blue; stroke-width:1"/>
<line x1="384" y1="524" x2="384" y2="524" style="stroke:blue; stroke-width:1"/>
<line x1="384" y1="519" x2="384" y2="515" style="stroke:blue; stroke-width:1"/>
<line x1="384" y1="515" x2="384" y2="515" style="stroke:blue; stroke-width:1"/>
<line x1="384" y1="559" x2="384" y2="573" style="stroke:blue; stroke-width:1"/>
<line x1="384" y1="573" x2="384" y2="573" style="stroke:blue; stroke-width:1"/>
<line x1="384" y1="571" x2="384" y2="583" style="stroke:blue; stroke-width:1"/>
<line x1="384" y1="583" x2="384" y2="583" style="stroke:blue; stroke-width:1"/>
<line x1="384" y1="598" x2="384" y2="603" style="stroke:blue; stroke-width:1"/>
<line x1="384" y1="603" x2="384" y2="603" style="stroke:blue; stroke-width:1"/>
<line x1="384" y1="598" x2="384" y2="593" style="stroke:blue; stroke-width:1"/>
<line x1="384" y1="593" x2="384" y2="593" style="stroke:blue; stroke-width:1"/>
<line x1="384" y1="605" x2="384" y2="612" style="stroke:blue; stroke-width:1"/>
<line x1="384" y1="612" x2="384" y2="612" style="stroke:blue; stroke-width:1"/>
<line x1="16" y1="660" x2="16" y2="691" style="stroke:blue; stroke-width:1"/>
<line x1="16" y1="691" x2="384" y2="691" style="stroke:blue; stroke-width:1"/>
<line x1="16" y1="680" x2="16" y2="700" style="stroke:blue; stroke-width:1"/>
<line x1="16" y1="700" x2="384" y2="700" style="stroke:blue; stroke-width:1"/>
<line x1="384" y1="334" x2="384" y2="339" style="stroke:blue; stroke-width:1"/>
<line x1="384" y1="339" x2="384" y2="339" style="stroke:blue; stroke-width:1"/>
<line x1="384" y1="334" x2="384" y2="329" style="stroke:blue; stroke-width:1"/>
<line x1="384" y1="329" x2="384" y2="329" style="stroke:blue; stroke-width:1"/>
<line x1="384" y1="341" x2="384" y2="348" style="stroke:blue; stroke-width:1"/>
<line x1="384" y1="348" x2="384" y2="348" style="stroke:blue; stroke-width:1"/>
<line x1="384" y1="350" x2="384" y2="358" style="stroke:blue; stroke-width:1"/>
<line x1="384" y1="358" x2="384" y2="358" style="stroke:blue; stroke-width:1"/>
<line x1="384" y1="275" x2="384" y2="280" style="stroke:blue; stroke-width:1"/>
<line x1="384" y1="280" x2="384" y2="280" style="stroke:blue; stroke-width:1"/>
<line x1="384" y1="275" x2="384" y2="270" style="stroke:blue; stroke-width:1"/>
<line x1="384" y1="270" x2="384" y2="270" style="stroke:blue; stroke-width:1"/>
<line x1="384" y1="282" x2="384" y2="290" style="stroke:blue; stroke-width:1"/>
<line x1="384" y1="290" x2="384" y2="290" style="stroke:blue; stroke-width:1"/>
<line x1="384" y1="291" x2="384" y2="299" style="stroke:blue; stroke-width:1"/>
<line x1="384" y1="299" x2="384" y2="299" style="stroke:blue; stroke-width:1"/>
<line x1="384" y1="300" x2="384" y2="309" style="stroke:blue; stroke-width:1"/>
<line x1="384" y1="309" x2="384" y2="309" style="stroke:blue; stroke-width:1"/>
<line x1="384" y1="310" x2="384" y2="319" style="stroke:blue; stroke-width:1"/>
<line x1="384" y1="319" x2="384" y2="319" style="stroke:blue; stroke-width:1"/>
<line x1="384" y1="349" x2="384" y2="368" style="stroke:blue; stroke-width:1"/>
<line x1="384" y1="368" x2="384" y2="368" style="stroke:blue; stroke-width:1"/>
<line x1="384" y1="363" x2="384" y2="378" style="stroke:blue; stroke-width:1"/>
<line x1="384" y1="378" x2="384" y2="378" style="stroke:blue; stroke-width:1"/>
<line x1="384" y1="490" x2="384" y2="495" style="stroke:blue; stroke-width:1"/>
<line x1="384" y1="495" x2="384" y2="495" style="stroke:blue; stroke-width:1"/>
<line x1="384" y1="490" x2="384" y2="485" style="stroke:blue; stroke-width:1"/>
<line x1="384" y1="485" x2="384" y2="485" style="stroke:blue; stroke-width:1"/>
<line x1="384" y1="471" x2="384" y2="475" style="stroke:blue; stroke-width:1"/>
<line x1="384" y1="475" x2="384" y2="475" style="stroke:blue; stroke-width:1"/>
<line x1="384" y1="471" x2="384" y2="466" style="stroke:blue; stroke-width:1"/>
<line x1="384" y1="466" x2="384" y2="466" style="stroke:blue; stroke-width:1"/>
<line x1="384" y1="493" x2="384" y2="505" style="stroke:blue; stroke-width:1"/>
<line x1="384" y1="505" x2="384" y2="505" style="stroke:blue; stroke-width:1"/>
<line x1="384" y1="431" x2="384" y2="436" style="stroke:blue; stroke-width:1"/>
<line x1="384" y1="436" x2="384" y2="436" style="stroke:blue; stroke-width:1"/>
<line x1="384" y1="431" x2="384" y2="427" style="stroke:blue; stroke-width:1"/>
<line x1="384" y1="427" x2="384" y2="427" style="stroke:blue; stroke-width:1"/>
<line x1="384" y1="392" x2="384" y2="397" style="stroke:blue; stroke-width:1"/>
<line x1="384" y1="397" x2="384" y2="397" style="stroke:blue; stroke-width:1"/>
<line x1="384" y1="392" x2="384" y2="387" style="stroke:blue; stroke-width:1"/>
<line x1="384" y1="387" x2="384" y2="387" style="stroke:blue; stroke-width:1"/>
<line x1="384" y1="400" x2="384" y2="407" style="stroke:blue; stroke-width:1"/>
<line x1="384" y1="407" x2="384" y2="407" style="stroke:blue; stroke-width:1"/>
<line x1="384" y1="408" x2="384" y2="417" style="stroke:blue; stroke-width:1"/>
<line x1="384" y1="417" x2="384" y2="417" style="stroke:blue; stroke-width:1"/>
<line x1="384" y1="433" x2="384" y2="446" style="stroke:blue; stroke-width:1"/>
<line x1="384" y1="446" x2="384" y2="446" style="stroke:blue; stroke-width:1"/>
<line x1="384" y1="444" x2="384" y2="456" style="stroke:blue; stroke-width:1"/>
<line x1="384" y1="456" x2="384" y2="456" style="stroke:blue; stroke-width:1"/>
<line x1="384" y1="715" x2="384" y2="720" style="stroke:blue; stroke-width:1"/>
<line x1="384" y1="720" x2="384" y2="720" style="stroke:blue; stroke-width:1"/>
<line x1="384" y1="715" x2="384" y2="710" style="stroke:blue; stroke-width:1"/>
<line x1="384" y1="710" x2="384" y2="710" style="stroke:blue; stroke-width:1"/>
<line x1="384" y1="722" x2="384" y2="730" style="stroke:blue; stroke-width:1"/>
<line x1="384" y1="730" x2="384" y2="730" style="stroke:blue; stroke-width:1"/>
<line x1="16" y1="687" x2="16" y2="739" style="stroke:blue; stroke-width:1"/>
<line x1="16" y1="739" x2="384" y2="739" style="stroke:blue; stroke-width:1"/>
<line x1="384" y1="754" x2="384" y2="759" style="stroke:blue; stroke-width:1"/>
<line x1="384" y1="759" x2="384" y2="759" style="stroke:blue; stroke-width:1"/>
<line x1="384" y1="754" x2="384" y2="749" style="stroke:blue; stroke-width:1"/>
<line x1="384" y1="749" x2="384" y2="749" style="stroke:blue; stroke-width:1"/>
<line x1="16" y1="745" x2="16" y2="769" style="stroke:blue; stroke-width:1"/>
<line x1="16" y1="769" x2="384" y2="769" style="stroke:blue; stroke-width:1"/>
<line x1="384" y1="783" x2="384" y2="788" style="stroke:blue; stroke-width:1"/>
<line x1="384" y1="788" x2="384" y2="788" style="stroke:blue; stroke-width:1"/>
<line x1="384" y1="783" x2="384" y2="778" style="stroke:blue; stroke-width:1"/>
<line x1="384" y1="778" x2="384" y2="778" style="stroke:blue; stroke-width:1"/>
<line x1="384" y1="791" x2="384" y2="798" style="stroke:blue; stroke-width:1"/>
<line x1="384" y1="798" x2="384" y2="798" style="stroke:blue; stroke-width:1"/>
<line x1="16" y1="788" x2="16" y2="808" style="stroke:blue; stroke-width:1"/>
<line x1="16" y1="808" x2="384" y2="808" style="stroke:blue; stroke-width:1"/>
<line x1="16" y1="803" x2="16" y2="818" style="stroke:blue; stroke-width:1"/>
<line x1="16" y1="818" x2="384" y2="818" style="stroke:blue; stroke-width:1"/>
<line x1="384" y1="832" x2="384" y2="837" style="stroke:blue; stroke-width:1"/>
<line x1="384" y1="837" x2="384" y2="837" style="stroke:blue; stroke-width:1"/>
<line x1="384" y1="832" x2="384" y2="827" style="stroke:blue; stroke-width:1"/>
<line x1="384" y1="827" x2="384" y2="827" style="stroke:blue; stroke-width:1"/>
<line x1="382" y1="840" x2="382" y2="847" style="stroke:blue; stroke-width:1"/>
<line x1="382" y1="847" x2="384" y2="847" style="stroke:blue; stroke-width:1"/>
<line x1="16" y1="839" x2="16" y2="857" style="stroke:blue; stroke-width:1"/>
<line x1="16" y1="857" x2="384" y2="857" style="stroke:blue; stroke-width:1"/>
<line x1="16" y1="853" x2="16" y2="866" style="stroke:blue; stroke-width:1"/>
<line x1="16" y1="866" x2="384" y2="866" style="stroke:blue; stroke-width:1"/>
<line x1="384" y1="881" x2="384" y2="886" style="stroke:blue; stroke-width:1"/>
<line x1="384" y1="886" x2="384" y2="886" style="stroke:blue; stroke-width:1"/>
<line x1="384" y1="881" x2="384" y2="876" style="stroke:blue; stroke-width:1"/>
<line x1="384" y1="876" x2="384" y2="876" style="stroke:blue; stroke-width:1"/>
<line x1="384" y1="901" x2="384" y2="906" style="stroke:blue; stroke-width:1"/>
<line x1="384" y1="906" x2="384" y2="906" style="stroke:blue; stroke-width:1"/>
<line x1="384" y1="901" x2="384" y2="896" style="stroke:blue; stroke-width:1"/>
<line x1="384" y1="896" x2="384" y2="896" style="stroke:blue; stroke-width:1"/>
<line x1="384" y1="908" x2="384" y2="915" style="stroke:blue; stroke-width:1"/>
<line x1="384" y1="915" x2="384" y2="915" style="stroke:blue; stroke-width:1"/>
<line x1="384" y1="930" x2="384" y2="935" style="stroke:blue; stroke-width:1"/>
<line x1="384" y1="935" x2="384" y2="935" style="stroke:blue; stroke-width:1"/>
<line x1="384" y1="930" x2="384" y2="925" style="stroke:blue; stroke-width:1"/>
<line x1="384" y1="925" x2="384" y2="925" style="stroke:blue; stroke-width:1"/>
<line x1="384" y1="937" x2="384" y2="945" style="stroke:blue; stroke-width:1"/>
<line x1="384" y1="945" x2="384" y2="945" style="stroke:blue; stroke-width:1"/>
<line x1="384" y1="946" x2="384" y2="954" style="stroke:blue; stroke-width:1"/>
<line x1="384" y1="954" x2="384" y2="954" style="stroke:blue; stroke-width:1"/>
<line x1="16" y1="940" x2="16" y2="964" style="stroke:blue; stroke-width:1"/>
<line x1="16" y1="964" x2="384" y2="964" style="stroke:blue; stroke-width:1"/>
<line x1="16" y1="940" x2="16" y2="974" style="stroke:blue; stroke-width:1"/>
<line x1="16" y1="974" x2="384" y2="974" style="stroke:blue; stroke-width:1"/>
<line x1="16" y1="251" x2="16" y2="260" style="stroke:blue; stroke-width:1"/>
<line x1="16" y1="260" x2="384" y2="260" style="stroke:blue; stroke-width:1"/>
<line x1="16" y1="241" x2="16" y2="251" style="stroke:blue; stroke-width:1"/>
<line x1="16" y1="251" x2="384" y2="251" style="stroke:blue; stroke-width:1"/>
<line x1="16" y1="231" x2="16" y2="241" style="stroke:blue; stroke-width:1"/>
<line x1="16" y1="241" x2="384" y2="241" style="stroke:blue; stroke-width:1"/>
<line x1="16" y1="221" x2="16" y2="231" style="stroke:blue; stroke-width:1"/>
<line x1="16" y1="231" x2="384" y2="231" style="stroke:blue; stroke-width:1"/>
<line x1="16" y1="212" x2="16" y2="221" style="stroke:blue; stroke-width:1"/>
<line x1="16" y1="221" x2="384" y2="221" style="stroke:blue; stroke-width:1"/>
<line x1="16" y1="202" x2="16" y2="212" style="stroke:blue; stroke-width:1"/>
<line x1="16" y1="212" x2="384" y2="212" style="stroke:blue; stroke-width:1"/>
<line x1="16" y1="192" x2="16" y2="202" style="stroke:blue; stroke-width:1"/>
<line x1="16" y1="202" x2="384" y2="202" style="stroke:blue; stroke-width:1"/>
<line x1="16" y1="182" x2="16" y2="192" style="stroke:blue; stroke-width:1"/>
<line x1="16" y1="192" x2="384" y2="192" style="stroke:blue; stroke-width:1"/>
<line x1="16" y1="172" x2="16" y2="182" style="stroke:blue; stroke-width:1"/>
<line x1="16" y1="182" x2="384" y2="182" style="stroke:blue; stroke-width:1"/>
<line x1="16" y1="163" x2="16" y2="172" style="stroke:blue; stroke-width:1"/>
<line x1="16" y1="172" x2="384" y2="172" style="stroke:blue; stroke-width:1"/>
<line x1="16" y1="153" x2="16" y2="163" style="stroke:blue; stroke-width:1"/>
<line x1="16" y1="163" x2="384" y2="163" style="stroke:blue; stroke-width:1"/>
<line x1="16" y1="143" x2="16" y2="153" style="stroke:blue; stroke-width:1"/>
<line x1="16" y1="153" x2="384" y2="153" style="stroke:blue; stroke-width:1"/>
<line x1="16" y1="133" x2="16" y2="143" style="stroke:blue; stroke-width:1"/>
<line x1="16" y1="143" x2="384" y2="143" style="stroke:blue; stroke-width:1"/>
<line x1="16" y1="123" x2="16" y2="133" style="stroke:blue; stroke-width:1"/>
<line x1="16" y1="133" x2="384" y2="133" style="stroke:blue; stroke-width:1"/>
<line x1="16" y1="114" x2="16" y2="124" style="stroke:blue; stroke-width:1"/>
<line x1="16" y1="124" x2="384" y2="124" style="stroke:blue; stroke-width:1"/>
<line x1="16" y1="104" x2="16" y2="114" style="stroke:blue; stroke-width:1"/>
<line x1="16" y1="114" x2="384" y2="114" style="stroke:blue; stroke-width:1"/>
<line x1="16" y1="93" x2="16" y2="104" style="stroke:blue; stroke-width:1"/>
<line x1="16" y1="104" x2="384" y2="104" style="stroke:blue; stroke-width:1"/>
<line x1="16" y1="83" x2="16" y2="94" style="stroke:blue; stroke-width:1"/>
<line x1="16" y1="94" x2="384" y2="94" style="stroke:blue; stroke-width:1"/>
<line x1="16" y1="71" x2="16" y2="84" style="stroke:blue; stroke-width:1"/>
<line x1="16" y1="84" x2="384" y2="84" style="stroke:blue; stroke-width:1"/>
<line x1="384" y1="70" x2="384" y2="75" style="stroke:blue; stroke-width:1"/>
<line x1="384" y1="75" x2="384" y2="75" style="stroke:blue; stroke-width:1"/>
<line x1="384" y1="70" x2="384" y2="65" style="stroke:blue; stroke-width:1"/>
<line x1="384" y1="65" x2="384" y2="65" style="stroke:blue; stroke-width:1"/>
<line x1="16" y1="46" x2="16" y2="55" style="stroke:blue; stroke-width:1"/>
<line x1="16" y1="55" x2="384" y2="55" style="stroke:blue; stroke-width:1"/>
<line x1="16" y1="37" x2="16" y2="45" style="stroke:blue; stroke-width:1"/>
<line x1="16" y1="45" x2="384" y2="45" style="stroke:blue; stroke-width:1"/>
<line x1="16" y1="28" x2="16" y2="36" style="stroke:blue; stroke-width:1"/>
<line x1="16" y1="36" x2="384" y2="36" style="stroke:blue; stroke-width:1"/>
<line x1="16" y1="21" x2="16" y2="26" style="stroke:blue; stroke-width:1"/>
<line x1="16" y1="26" x2="384" y2="26" style="stroke:blue; stroke-width:1"/>
<line x1="16" y1="21" x2="16" y2="16" style="stroke:blue; stroke-width:1"/>
<line x1="16" y1="16" x2="384" y2="16" style="stroke:blue; stroke-width:1"/>
<line x1="384" y1="645" x2="384" y2="656" style="stroke:blue; stroke-width:1"/>
<line x1="384" y1="656" x2="384" y2="656" style="stroke:blue; stroke-width:1"/>
<line x1="384" y1="634" x2="384" y2="627" style="stroke:blue; stroke-width:1"/>
<line x1="384" y1="627" x2="384" y2="627" style="stroke:blue; stroke-width:1"/>
<line x1="384" y1="645" x2="384" y2="634" style="stroke:blue; stroke-width:1"/>
<line x1="384" y1="634" x2="384" y2="634" style="stroke:blue; stroke-width:1"/>
<line x1="16" y1="658" x2="16" y2="645" style="stroke:blue; stroke-width:1"/>
<line x1="16" y1="645" x2="384" y2="645" style="stroke:blue; stroke-width:1"/>
<line x1="16" y1="669" x2="16" y2="658" style="stroke:blue; stroke-width:1"/>
<line x1="16" y1="658" x2="16" y2="658" style="stroke:blue; stroke-width:1"/>
<line x1="16" y1="629" x2="16" y2="669" style="stroke:blue; stroke-width:1"/>
<line x1="16" y1="669" x2="16" y2="669" style="stroke:blue; stroke-width:1"/>
<line x1="384" y1="544" x2="384" y2="559" style="stroke:blue; stroke-width:1"/>
<line x1="384" y1="559" x2="384" y2="559" style="stroke:blue; stroke-width:1"/>
<line x1="384" y1="529" x2="384" y2="539" style="stroke:blue; stroke-width:1"/>
<line x1="384" y1="539" x2="384" y2="539" style="stroke:blue; stroke-width:1"/>
<line x1="384" y1="529" x2="384" y2="519" style="stroke:blue; stroke-width:1"/>
<line x1="384" y1="519" x2="384" y2="519" style="stroke:blue; stroke-width:1"/>
<line x1="384" y1="544" x2="384" y2="529" style="stroke:blue; stroke-width:1"/>
<line x1="384" y1="529" x2="384" y2="529" style="stroke:blue; stroke-width:1"/>
<line x1="384" y1="559" x2="384" y2="544" style="stroke:blue; stroke-width:1"/>
<line x1="384" y1="544" x2="384" y2="544" style="stroke:blue; stroke-width:1"/>
<line x1="384" y1="571" x2="384" y2="559" style="stroke:blue; stroke-width:1"/>
<line x1="384" y1="559" x2="384" y2="559" style="stroke:blue; stroke-width:1"/>
<line x1="384" y1="588" x2="384" y2="571" style="stroke:blue; stroke-width:1"/>
<line x1="384" y1="571" x2="384" y2="571" style="stroke:blue; stroke-width:1"/>
<line x1="384" y1="605" x2="384" y2="598" style="stroke:blue; stroke-width:1"/>
<line x1="384" y1="598" x2="384" y2="598" style="stroke:blue; stroke-width:1"/>
<line x1="384" y1="588" x2="384" y2="605" style="stroke:blue; stroke-width:1"/>
<line x1="384" y1="605" x2="384" y2="605" style="stroke:blue; stroke-width:1"/>
<line x1="16" y1="629" x2="16" y2="588" style="stroke:blue; stroke-width:1"/>
<line x1="16" y1="588" x2="384" y2="588" style="stroke:blue; stroke-width:1"/>
<line x1="16" y1="660" x2="16" y2="629" style="stroke:blue; stroke-width:1"/>
<line x1="16" y1="629" x2="16" y2="629" style="stroke:blue; stroke-width:1"/>
<line x1="16" y1="680" x2="16" y2="660" style="stroke:blue; stroke-width:1"/>
<line x1="16" y1="660" x2="16" y2="660" style="stroke:blue; stroke-width:1"/>
<line x1="16" y1="548" x2="16" y2="680" style="stroke:blue; stroke-width:1"/>
<line x1="16" y1="680" x2="16" y2="680" style="stroke:blue; stroke-width:1"/>
<line x1="384" y1="341" x2="384" y2="334" style="stroke:blue; stroke-width:1"/>
<line x1="384" y1="334" x2="384" y2="334" style="stroke:blue; stroke-width:1"/>
<line x1="384" y1="350" x2="384" y2="341" style="stroke:blue; stroke-width:1"/>
<line x1="384" y1="341" x2="384" y2="341" style="stroke:blue; stroke-width:1"/>
<line x1="384" y1="330" x2="384" y2="350" style="stroke:blue; stroke-width:1"/>
<line x1="384" y1="350" x2="384" y2="350" style="stroke:blue; stroke-width:1"/>
<line x1="384" y1="282" x2="384" y2="275" style="stroke:blue; stroke-width:1"/>
<line x1="384" y1="275" x2="384" y2="275" style="stroke:blue; stroke-width:1"/>
<line x1="384" y1="291" x2="384" y2="282" style="stroke:blue; stroke-width:1"/>
<line x1="384" y1="282" x2="384" y2="282" style="stroke:blue; stroke-width:1"/>
<line x1="384" y1="300" x2="384" y2="291" style="stroke:blue; stroke-width:1"/>
<line x1="384" y1="291" x2="384" y2="291" style="stroke:blue; stroke-width:1"/>
<line x1="384" y1="310" x2="384" y2="300" style="stroke:blue; stroke-width:1"/>
<line x1="384" y1="300" x2="384" y2="300" style="stroke:blue; stroke-width:1"/>
<line x1="384" y1="330" x2="384" y2="310" style="stroke:blue; stroke-width:1"/>
<line x1="384" y1="310" x2="384" y2="310" style="stroke:blue; stroke-width:1"/>
<line x1="384" y1="349" x2="384" y2="330" style="stroke:blue; stroke-width:1"/>
<line x1="384" y1="330" x2="384" y2="330" style="stroke:blue; stroke-width:1"/>
<line x1="384" y1="363" x2="384" y2="349" style="stroke:blue; stroke-width:1"/>
<line x1="384" y1="349" x2="384" y2="349" style="stroke:blue; stroke-width:1"/>
<line x1="384" y1="416" x2="384" y2="363" style="stroke:blue; stroke-width:1"/>
<line x1="384" y1="363" x2="384" y2="363" style="stroke:blue; stroke-width:1"/>
<line x1="384" y1="480" x2="384" y2="490" style="stroke:blue; stroke-width:1"/>
<line x1="384" y1="490" x2="384" y2="490" style="stroke:blue; stroke-width:1"/>
<line x1="384" y1="480" x2="384" y2="471" style="stroke:blue; stroke-width:1"/>
<line x1="384" y1="471" x2="384" y2="471" style="stroke:blue; stroke-width:1"/>
<line x1="384" y1="493" x2="384" y2="480" style="stroke:blue; stroke-width:1"/>
<line x1="384" y1="480" x2="384" y2="480" style="stroke:blue; stroke-width:1"/>
<line x1="384" y1="468" x2="384" y2="493" style="stroke:blue; stroke-width:1"/>
<line x1="384" y1="493" x2="384" y2="493" style="stroke:blue; stroke-width:1"/>
<line x1="384" y1="420" x2="384" y2="431" style="stroke:blue; stroke-width:1"/>
<line x1="384" y1="431" x2="384" y2="431" style="stroke:blue; stroke-width:1"/>
<line x1="384" y1="400" x2="384" y2="392" style="stroke:blue; stroke-width:1"/>
<line x1="384" y1="392" x2="384" y2="392" style="stroke:blue; stroke-width:1"/>
<line x1="384" y1="408" x2="384" y2="400" style="stroke:blue; stroke-width:1"/>
<line x1="384" y1="400" x2="384" y2="400" style="stroke:blue; stroke-width:1"/>
<line x1="384" y1="420" x2="384" y2="408" style="stroke:blue; stroke-width:1"/>
<line x1="384" y1="408" x2="384" y2="408" style="stroke:blue; stroke-width:1"/>
<line x1="384" y1="433" x2="384" y2="420" style="stroke:blue; stroke-width:1"/>
<line x1="384" y1="420" x2="384" y2="420" style="stroke:blue; stroke-width:1"/>
<line x1="384" y1="444" x2="384" y2="433" style="stroke:blue; stroke-width:1"/>
<line x1="384" y1="433" x2="384" y2="433" style="stroke:blue; stroke-width:1"/>
<line x1="384" y1="468" x2="384" y2="444" style="stroke:blue; stroke-width:1"/>
<line x1="384" y1="444" x2="384" y2="444" style="stroke:blue; stroke-width:1"/>
<line x1="384" y1="416" x2="384" y2="468" style="stroke:blue; stroke-width:1"/>
<line x1="384" y1="468" x2="384" y2="468" style="stroke:blue; stroke-width:1"/>
<line x1="16" y1="548" x2="16" y2="416" style="stroke:blue; stroke-width:1"/>
<line x1="16" y1="416" x2="384" y2="416" style="stroke:blue; stroke-width:1"/>
<line x1="16" y1="635" x2="16" y2="548" style="stroke:blue; stroke-width:1"/>
<line x1="16" y1="548" x2="16" y2="548" style="stroke:blue; stroke-width:1"/>
<line x1="384" y1="722" x2="384" y2="715" style="stroke:blue; stroke-width:1"/>
<line x1="384" y1="715" x2="384" y2="715" style="stroke:blue; stroke-width:1"/>
<line x1="16" y1="635" x2="16" y2="722" style="stroke:blue; stroke-width:1"/>
<line x1="16" y1="722" x2="384" y2="722" style="stroke:blue; stroke-width:1"/>
<line x1="16" y1="687" x2="16" y2="635" style="stroke:blue; stroke-width:1"/>
<line x1="16" y1="635" x2="16" y2="635" style="stroke:blue; stroke-width:1"/>
<line x1="16" y1="721" x2="16" y2="687" style="stroke:blue; stroke-width:1"/>
<line x1="16" y1="687" x2="16" y2="687" style="stroke:blue; stroke-width:1"/>
<line x1="16" y1="721" x2="16" y2="754" style="stroke:blue; stroke-width:1"/>
<line x1="16" y1="754" x2="384" y2="754" style="stroke:blue; stroke-width:1"/>
<line x1="16" y1="745" x2="16" y2="721" style="stroke:blue; stroke-width:1"/>
<line x1="16" y1="721" x2="16" y2="721" style="stroke:blue; stroke-width:1"/>
<line x1="16" y1="768" x2="16" y2="745" style="stroke:blue; stroke-width:1"/>
<line x1="16" y1="745" x2="16" y2="745" style="stroke:blue; stroke-width:1"/>
<line x1="384" y1="791" x2="384" y2="783" style="stroke:blue; stroke-width:1"/>
<line x1="384" y1="783" x2="384" y2="783" style="stroke:blue; stroke-width:1"/>
<line x1="16" y1="768" x2="16" y2="791" style="stroke:blue; stroke-width:1"/>
<line x1="16" y1="791" x2="384" y2="791" style="stroke:blue; stroke-width:1"/>
<line x1="16" y1="788" x2="16" y2="768" style="stroke:blue; stroke-width:1"/>
<line x1="16" y1="768" x2="16" y2="768" style="stroke:blue; stroke-width:1"/>
<line x1="16" y1="803" x2="16" y2="788" style="stroke:blue; stroke-width:1"/>
<line x1="16" y1="788" x2="16" y2="788" style="stroke:blue; stroke-width:1"/>
<line x1="16" y1="821" x2="16" y2="803" style="stroke:blue; stroke-width:1"/>
<line x1="16" y1="803" x2="16" y2="803" style="stroke:blue; stroke-width:1"/>
<line x1="382" y1="840" x2="382" y2="832" style="stroke:blue; stroke-width:1"/>
<line x1="382" y1="832" x2="384" y2="832" style="stroke:blue; stroke-width:1"/>
<line x1="16" y1="821" x2="16" y2="840" style="stroke:blue; stroke-width:1"/>
<line x1="16" y1="840" x2="382" y2="840" style="stroke:blue; stroke-width:1"/>
<line x1="16" y1="839" x2="16" y2="821" style="stroke:blue; stroke-width:1"/>
<line x1="16" y1="821" x2="16" y2="821" style="stroke:blue; stroke-width:1"/>
<line x1="16" y1="853" x2="16" y2="839" style="stroke:blue; stroke-width:1"/>
<line x1="16" y1="839" x2="16" y2="839" style="stroke:blue; stroke-width:1"/>
<line x1="16" y1="867" x2="16" y2="853" style="stroke:blue; stroke-width:1"/>
<line x1="16" y1="853" x2="16" y2="853" style="stroke:blue; stroke-width:1"/>
<line x1="16" y1="867" x2="16" y2="881" style="stroke:blue; stroke-width:1"/>
<line x1="16" y1="881" x2="384" y2="881" style="stroke:blue; stroke-width:1"/>
<line x1="16" y1="887" x2="16" y2="867" style="stroke:blue; stroke-width:1"/>
<line x1="16" y1="867" x2="16" y2="867" style="stroke:blue; stroke-width:1"/>
<line x1="384" y1="908" x2="384" y2="901" style="stroke:blue; stroke-width:1"/>
<line x1="384" y1="901" x2="384" y2="901" style="stroke:blue; stroke-width:1"/>
<line x1="16" y1="887" x2="16" y2="908" style="stroke:blue; stroke-width:1"/>
<line x1="16" y1="908" x2="384" y2="908" style="stroke:blue; stroke-width:1"/>
<line x1="16" y1="917" x2="16" y2="887" style="stroke:blue; stroke-width:1"/>
<line x1="16" y1="887" x2="16" y2="887" style="stroke:blue; stroke-width:1"/>
<line x1="384" y1="937" x2="384" y2="930" style="stroke:blue; stroke-width:1"/>
<line x1="384" y1="930" x2="384" y2="930" style="stroke:blue; stroke-width:1"/>
<line x1="384" y1="946" x2="384" y2="937" style="stroke:blue; stroke-width:1"/>
<line x1="384" y1="937" x2="384" y2="937" style="stroke:blue; stroke-width:1"/>
<line x1="16" y1="917" x2="16" y2="946" style="stroke:blue; stroke-width:1"/>
<line x1="16" y1="946" x2="384" y2="946" style="stroke:blue; stroke-width:1"/>
<line x1="16" y1="940" x2="16" y2="917" style="stroke:blue; stroke-width:1"/>
<line x1="16" y1="917" x2="16" y2="917" style="stroke:blue; stroke-width:1"/>
<line x1="16" y1="940" x2="16" y2="940" style="stroke:blue; stroke-width:1"/>
<line x1="16" y1="940" x2="16" y2="940" style="stroke:blue; stroke-width:1"/>
<line x1="16" y1="940" x2="16" y2="251" style="stroke:blue; stroke-width:1"/>
<line x1="16" y1="251" x2="16" y2="251" style="stroke:blue; stroke-width:1"/>
<line x1="16" y1="251" x2="16" y2="241" style="stroke:blue; stroke-width:1"/>
<line x1="16" y1="241" x2="16" y2="241" style="stroke:blue; stroke-width:1"/>
<line x1="16" y1="241" x2="16" y2="231" style="stroke:blue; stroke-width:1"/>
<line x1="16" y1="231" x2="16" y2="231" style="stroke:blue; stroke-width:1"/>
<line x1="16" y1="231" x2="16" y2="221" style="stroke:blue; stroke-width:1"/>
<line x1="16" y1="221" x2="16" y2="221" style="stroke:blue; stroke-width:1"/>
<line x1="16" y1="221" x2="16" y2="212" style="stroke:blue; stroke-width:1"/>
<line x1="16" y1="212" x2="16" y2="212" style="stroke:blue; stroke-width:1"/>
<line x1="16" y1="212" x2="16" y2="202" style="stroke:blue; stroke-width:1"/>
<line x1="16" y1="202" x2="16" y2="202" style="stroke:blue; stroke-width:1"/>
<line x1="16" y1="202" x2="16" y2="192" style="stroke:blue; stroke-width:1"/>
<line x1="16" y1="192" x2="16" y2="192" style="stroke:blue; stroke-width:1"/>
<line x1="16" y1="192" x2="16" y2="182" style="stroke:blue; stroke-width:1"/>
<line x1="16" y1="182" x2="16" y2="182" style="stroke:blue; stroke-width:1"/>
<line x1="16" y1="182" x2="16" y2="172" style="stroke:blue; stroke-width:1"/>
<line x1="16" y1="172" x2="16" y2="172" style="stroke:blue; stroke-width:1"/>
<line x1="16" y1="172" x2="16" y2="163" style="stroke:blue; stroke-width:1"/>
<line x1="16" y1="163" x2="16" y2="163" style="stroke:blue; stroke-width:1"/>
<line x1="16" y1="163" x2="16" y2="153" style="stroke:blue; stroke-width:1"/>
<line x1="16" y1="153" x2="16" y2="153" style="stroke:blue; stroke-width:1"/>
<line x1="16" y1="153" x2="16" y2="143" style="stroke:blue; stroke-width:1"/>
<line x1="16" y1="143" x2="16" y2="143" style="stroke:blue; stroke-width:1"/>
<line x1="16" y1="143" x2="16" y2="133" style="stroke:blue; stroke-width:1"/>
<line x1="16" y1="133" x2="16" y2="133" style="stroke:blue; stroke-width:1"/>
<line x1="16" y1="133" x2="16" y2="123" style="stroke:blue; stroke-width:1"/>
<line x1="16" y1="123" x2="16" y2="123" style="stroke:blue; stroke-width:1"/>
<line x1="16" y1="123" x2="16" y2="114" style="stroke:blue; stroke-width:1"/>
<line x1="16" y1="114" x2="16" y2="114" style="stroke:blue; stroke-width:1"/>
<line x1="16" y1="114" x2="16" y2="104" style="stroke:blue; stroke-width:1"/>
<line x1="16" y1="104" x2="16" y2="104" style="stroke:blue; stroke-width:1"/>
<line x1="16" y1="104" x2="16" y2="93" style="stroke:blue; stroke-width:1"/>
<line x1="16" y1="93" x2="16" y2="93" style="stroke:blue; stroke-width:1"/>
<line x1="16" y1="93" x2="16" y2="83" style="stroke:blue; stroke-width:1"/>
<line x1="16" y1="83" x2="16" y2="83" style="stroke:blue; stroke-width:1"/>
<line x1="16" y1="83" x2="16" y2="71" style="stroke:blue; stroke-width:1"/>
<line x1="16" y1="71" x2="16" y2="71" style="stroke:blue; stroke-width:1"/>
<line x1="16" y1="58" x2="16" y2="70" style="stroke:blue; stroke-width:1"/>
<line x1="16" y1="70" x2="384" y2="70" style="stroke:blue; stroke-width:1"/>
<line x1="16" y1="71" x2="16" y2="58" style="stroke:blue; stroke-width:1"/>
<line x1="16" y1="58" x2="16" y2="58" style="stroke:blue; stroke-width:1"/>
<line x1="16" y1="58" x2="16" y2="46" style="stroke:blue; stroke-width:1"/>
<line x1="16" y1="46" x2="16" y2="46" style="stroke:blue; stroke-width:1"/>
<line x1="16" y1="46" x2="16" y2="37" style="stroke:blue; stroke-width:1"/>
<line x1="16" y1="37" x2="16" y2="37" style="stroke:blue; stroke-width:1"/>
<line x1="16" y1="37" x2="16" y2="28" style="stroke:blue; stroke-width:1"/>
<line x1="16" y1="28" x2="16" y2="28" style="stroke:blue; stroke-width:1"/>
<line x1="16" y1="28" x2="16" y2="21" style="stroke:blue; stroke-width:1"/>
<line x1="16" y1="21" x2="16" y2="21" style="stroke:blue; stroke-width:1"/>
<text x="388" y="976" font-weight = "10" font-family="verdana" fill="black" font-size="13">MT322416.1</text>
<text x="388" y="966" font-weight = "10" font-family="verdana" fill="black" font-size="13">MT326102.1</text>
<text x="388" y="956" font-weight = "10" font-family="verdana" fill="black" font-size="13">MT350246.1</text>
<text x="388" y="947" font-weight = "10" font-family="verdana" fill="black" font-size="13">MT246459.1</text>
<text x="388" y="937" font-weight = "10" font-family="verdana" fill="black" font-size="13">MT345841.1</text>
<text x="388" y="927" font-weight = "10" font-family="verdana" fill="black" font-size="13">MT246466.1</text>
<text x="388" y="917" font-weight = "10" font-family="verdana" fill="black" font-size="13">MT334556.1</text>
<text x="388" y="908" font-weight = "10" font-family="verdana" fill="black" font-size="13">MT263421.1</text>
<text x="388" y="898" font-weight = "10" font-family="verdana" fill="black" font-size="13">MT322409.1</text>
<text x="388" y="888" font-weight = "10" font-family="verdana" fill="black" font-size="13">MT326031.1</text>
<text x="388" y="878" font-weight = "10" font-family="verdana" fill="black" font-size="13">MT326110.1</text>
<text x="388" y="868" font-weight = "10" font-family="verdana" fill="black" font-size="13">MT259265.1</text>
<text x="388" y="859" font-weight = "10" font-family="verdana" fill="black" font-size="13">MT326151.1</text>
<text x="388" y="849" font-weight = "10" font-family="verdana" fill="black" font-size="13">MT044258.1</text>
<text x="388" y="839" font-weight = "10" font-family="verdana" fill="black" font-size="13">MT263406.1</text>
<text x="388" y="829" font-weight = "10" font-family="verdana" fill="black" font-size="13">MT345825.1</text>
<text x="388" y="820" font-weight = "10" font-family="verdana" fill="black" font-size="13">MT326186.1</text>
<text x="388" y="810" font-weight = "10" font-family="verdana" fill="black" font-size="13">MT350242.1</text>
<text x="388" y="800" font-weight = "10" font-family="verdana" fill="black" font-size="13">MT334558.1</text>
<text x="388" y="790" font-weight = "10" font-family="verdana" fill="black" font-size="13">MT334543.1</text>
<text x="388" y="780" font-weight = "10" font-family="verdana" fill="black" font-size="13">MT334566.1</text>
<text x="388" y="771" font-weight = "10" font-family="verdana" fill="black" font-size="13">MT326072.1</text>
<text x="388" y="761" font-weight = "10" font-family="verdana" fill="black" font-size="13">MT263449.1</text>
<text x="388" y="751" font-weight = "10" font-family="verdana" fill="black" font-size="13">MT263412.1</text>
<text x="388" y="741" font-weight = "10" font-family="verdana" fill="black" font-size="13">MT263398.1</text>
<text x="388" y="732" font-weight = "10" font-family="verdana" fill="black" font-size="13">MT246471.1</text>
<text x="388" y="722" font-weight = "10" font-family="verdana" fill="black" font-size="13">MT259251.1</text>
<text x="388" y="712" font-weight = "10" font-family="verdana" fill="black" font-size="13">MT345861.1</text>
<text x="388" y="702" font-weight = "10" font-family="verdana" fill="black" font-size="13">MT308692.1</text>
<text x="388" y="693" font-weight = "10" font-family="verdana" fill="black" font-size="13">MT345824.1</text>
<text x="388" y="683" font-weight = "10" font-family="verdana" fill="black" font-size="13">MT259258.1</text>
<text x="388" y="673" font-weight = "10" font-family="verdana" fill="black" font-size="13">MT345804.1</text>
<text x="388" y="663" font-weight = "10" font-family="verdana" fill="black" font-size="13">MT263451.1</text>
<text x="388" y="653" font-weight = "10" font-family="verdana" fill="black" font-size="13">MT326101.1</text>
<text x="388" y="644" font-weight = "10" font-family="verdana" fill="black" font-size="13">MT259235.1</text>
<text x="388" y="634" font-weight = "10" font-family="verdana" fill="black" font-size="13">MT326025.1</text>
<text x="388" y="624" font-weight = "10" font-family="verdana" fill="black" font-size="13">MT263390.1</text>
<text x="388" y="614" font-weight = "10" font-family="verdana" fill="black" font-size="13">MT293156.1</text>
<text x="388" y="605" font-weight = "10" font-family="verdana" fill="black" font-size="13">MT345867.1</text>
<text x="388" y="595" font-weight = "10" font-family="verdana" fill="black" font-size="13">MT293202.1</text>
<text x="388" y="585" font-weight = "10" font-family="verdana" fill="black" font-size="13">MT345874.1</text>
<text x="388" y="575" font-weight = "10" font-family="verdana" fill="black" font-size="13">MT326049.1</text>
<text x="388" y="565" font-weight = "10" font-family="verdana" fill="black" font-size="13">MT345858.1</text>
<text x="388" y="556" font-weight = "10" font-family="verdana" fill="black" font-size="13">MT259256.1</text>
<text x="388" y="546" font-weight = "10" font-family="verdana" fill="black" font-size="13">MT326171.1</text>
<text x="388" y="536" font-weight = "10" font-family="verdana" fill="black" font-size="13">MT326137.1</text>
<text x="388" y="526" font-weight = "10" font-family="verdana" fill="black" font-size="13">MT326113.1</text>
<text x="388" y="517" font-weight = "10" font-family="verdana" fill="black" font-size="13">MT326048.1</text>
<text x="388" y="507" font-weight = "10" font-family="verdana" fill="black" font-size="13">MT304488.1</text>
<text x="388" y="497" font-weight = "10" font-family="verdana" fill="black" font-size="13">MT339041.1</text>
<text x="388" y="487" font-weight = "10" font-family="verdana" fill="black" font-size="13">MT344947.1</text>
<text x="388" y="477" font-weight = "10" font-family="verdana" fill="black" font-size="13">MT325632.1</text>
<text x="388" y="468" font-weight = "10" font-family="verdana" fill="black" font-size="13">MT325636.1</text>
<text x="388" y="458" font-weight = "10" font-family="verdana" fill="black" font-size="13">MT184910.1</text>
<text x="388" y="448" font-weight = "10" font-family="verdana" fill="black" font-size="13">MT276331.1</text>
<text x="388" y="438" font-weight = "10" font-family="verdana" fill="black" font-size="13">MT159705.1</text>
<text x="388" y="429" font-weight = "10" font-family="verdana" fill="black" font-size="13">MT276328.1</text>
<text x="388" y="419" font-weight = "10" font-family="verdana" fill="black" font-size="13">MT334529.1</text>
<text x="388" y="409" font-weight = "10" font-family="verdana" fill="black" font-size="13">MT159707.1</text>
<text x="388" y="399" font-weight = "10" font-family="verdana" fill="black" font-size="13">MT159710.1</text>
<text x="388" y="389" font-weight = "10" font-family="verdana" fill="black" font-size="13">MT304483.1</text>
<text x="388" y="380" font-weight = "10" font-family="verdana" fill="black" font-size="13">MT304480.1</text>
<text x="388" y="370" font-weight = "10" font-family="verdana" fill="black" font-size="13">MT163718.1</text>
<text x="388" y="360" font-weight = "10" font-family="verdana" fill="black" font-size="13">MT344949.1</text>
<text x="388" y="350" font-weight = "10" font-family="verdana" fill="black" font-size="13">MT325591.1</text>
<text x="388" y="341" font-weight = "10" font-family="verdana" fill="black" font-size="13">MT262907.1</text>
<text x="388" y="331" font-weight = "10" font-family="verdana" fill="black" font-size="13">MT325613.1</text>
<text x="388" y="321" font-weight = "10" font-family="verdana" fill="black" font-size="13">MT350275.1</text>
<text x="388" y="311" font-weight = "10" font-family="verdana" fill="black" font-size="13">MT262908.1</text>
<text x="388" y="301" font-weight = "10" font-family="verdana" fill="black" font-size="13">MT262896.1</text>
<text x="388" y="292" font-weight = "10" font-family="verdana" fill="black" font-size="13">MT350267.1</text>
<text x="388" y="282" font-weight = "10" font-family="verdana" fill="black" font-size="13">MT262897.1</text>
<text x="388" y="272" font-weight = "10" font-family="verdana" fill="black" font-size="13">MT350263.1</text>
<text x="388" y="262" font-weight = "10" font-family="verdana" fill="black" font-size="13">MT350249.1</text>
<text x="388" y="253" font-weight = "10" font-family="verdana" fill="black" font-size="13">MT293191.1</text>
<text x="388" y="243" font-weight = "10" font-family="verdana" fill="black" font-size="13">MT322418.1</text>
<text x="388" y="233" font-weight = "10" font-family="verdana" fill="black" font-size="13">MT308693.1</text>
<text x="388" y="223" font-weight = "10" font-family="verdana" fill="black" font-size="13">MT293221.1</text>
<text x="388" y="214" font-weight = "10" font-family="verdana" fill="black" font-size="13">MT326191.1</text>
<text x="388" y="204" font-weight = "10" font-family="verdana" fill="black" font-size="13">MT326115.1</text>
<text x="388" y="194" font-weight = "10" font-family="verdana" fill="black" font-size="13">MT345830.1</text>
<text x="388" y="184" font-weight = "10" font-family="verdana" fill="black" font-size="13">MT246464.1</text>
<text x="388" y="174" font-weight = "10" font-family="verdana" fill="black" font-size="13">MT246473.1</text>
<text x="388" y="165" font-weight = "10" font-family="verdana" fill="black" font-size="13">MT326035.1</text>
<text x="388" y="155" font-weight = "10" font-family="verdana" fill="black" font-size="13">MT326045.1</text>
<text x="388" y="145" font-weight = "10" font-family="verdana" fill="black" font-size="13">MT326179.1</text>
<text x="388" y="135" font-weight = "10" font-family="verdana" fill="black" font-size="13">MT326130.1</text>
<text x="388" y="126" font-weight = "10" font-family="verdana" fill="black" font-size="13">MT263426.1</text>
<text x="388" y="116" font-weight = "10" font-family="verdana" fill="black" font-size="13">MT345811.1</text>
<text x="388" y="106" font-weight = "10" font-family="verdana" fill="black" font-size="13">MT326184.1</text>
<text x="388" y="96" font-weight = "10" font-family="verdana" fill="black" font-size="13">MT326030.1</text>
<text x="388" y="86" font-weight = "10" font-family="verdana" fill="black" font-size="13">MT251977.1</text>
<text x="388" y="77" font-weight = "10" font-family="verdana" fill="black" font-size="13">MT246458.1</text>
<text x="388" y="67" font-weight = "10" font-family="verdana" fill="black" font-size="13">MT326170.1</text>
<text x="388" y="57" font-weight = "10" font-family="verdana" fill="black" font-size="13">MT326142.1</text>
<text x="388" y="47" font-weight = "10" font-family="verdana" fill="black" font-size="13">MT263393.1</text>
<text x="388" y="38" font-weight = "10" font-family="verdana" fill="black" font-size="13">MT345826.1</text>
<text x="388" y="28" font-weight = "10" font-family="verdana" fill="black" font-size="13">MT326180.1</text>
<text x="388" y="18" font-weight = "10" font-family="verdana" fill="black" font-size="13">MT263429.1</text>
</g></svg>